M48
; DRILL file {KiCad 7.0.7} date Thu May 16 13:05:55 2024
; FORMAT={-:-/ absolute / metric / decimal}
; #@! TF.CreationDate,2024-05-16T13:05:55-10:00
; #@! TF.GenerationSoftware,Kicad,Pcbnew,7.0.7
; #@! TF.FileFunction,Plated,1,2,PTH
FMAT,2
METRIC
; #@! TA.AperFunction,Plated,PTH,ViaDrill
T1C0.750
; #@! TA.AperFunction,Plated,PTH,ComponentDrill
T2C0.800
; #@! TA.AperFunction,Plated,PTH,ComponentDrill
T3C0.890
; #@! TA.AperFunction,Plated,PTH,ComponentDrill
T4C0.900
; #@! TA.AperFunction,Plated,PTH,ComponentDrill
T5C1.000
; #@! TA.AperFunction,Plated,PTH,ComponentDrill
T6C1.300
; #@! TA.AperFunction,Plated,PTH,ComponentDrill
T7C1.500
; #@! TA.AperFunction,Plated,PTH,ComponentDrill
T8C2.010
%
G90
G05
T1
X105.0Y-66.5
X107.5Y-108.5
X110.0Y-69.365
X113.19Y-112.31
X116.0Y-74.0
X116.0Y-82.5
X119.0Y-68.095
X119.0Y-103.0
X121.0Y-103.0
X121.5Y-74.0
X121.5Y-116.5
X122.0Y-110.0
X123.0Y-103.0
X123.0Y-106.0
X125.0Y-73.0
X125.0Y-116.5
X127.5Y-82.5
X129.0Y-76.5
T2
X105.153Y-120.0
X107.653Y-120.0
X107.97Y-89.375
X110.51Y-91.915
X110.55Y-89.375
X113.05Y-89.375
X119.47Y-89.25
X122.01Y-91.79
X122.05Y-89.25
X124.55Y-89.25
T3
X127.45Y-125.46
X127.45Y-128.0
T4
X134.75Y-113.735
X134.75Y-116.275
T5
X120.0Y-124.0
X120.0Y-126.54
X130.0Y-95.0
X130.0Y-97.5
X130.0Y-100.0
X130.0Y-102.5
X130.0Y-105.0
X135.0Y-69.5
X135.0Y-72.0
X135.0Y-74.5
X135.0Y-95.0
X135.0Y-97.5
X135.0Y-100.0
X135.0Y-102.5
X135.0Y-105.0
T6
X106.0Y-135.0
X111.0Y-135.0
T7
X110.0Y-76.5
X115.0Y-120.0
X115.0Y-127.5
X119.0Y-76.5
T8
X132.53Y-122.92
X132.53Y-133.08
T0
M30
