%TF.GenerationSoftware,KiCad,Pcbnew,7.0.7*%
%TF.CreationDate,2024-08-22T16:43:00-10:00*%
%TF.ProjectId,pHSim2,70485369-6d32-42e6-9b69-6361645f7063,rev?*%
%TF.SameCoordinates,Original*%
%TF.FileFunction,Legend,Top*%
%TF.FilePolarity,Positive*%
%FSLAX46Y46*%
G04 Gerber Fmt 4.6, Leading zero omitted, Abs format (unit mm)*
G04 Created by KiCad (PCBNEW 7.0.7) date 2024-08-22 16:43:00*
%MOMM*%
%LPD*%
G01*
G04 APERTURE LIST*
%ADD10C,0.150000*%
%ADD11C,0.120000*%
%ADD12C,0.100000*%
%TA.AperFunction,Profile*%
%ADD13C,0.100000*%
%TD*%
G04 APERTURE END LIST*
D10*
X125110588Y-63720176D02*
X125051064Y-63779700D01*
X125051064Y-63779700D02*
X124872493Y-63839223D01*
X124872493Y-63839223D02*
X124753445Y-63839223D01*
X124753445Y-63839223D02*
X124574874Y-63779700D01*
X124574874Y-63779700D02*
X124455826Y-63660652D01*
X124455826Y-63660652D02*
X124396303Y-63541604D01*
X124396303Y-63541604D02*
X124336779Y-63303509D01*
X124336779Y-63303509D02*
X124336779Y-63124938D01*
X124336779Y-63124938D02*
X124396303Y-62886842D01*
X124396303Y-62886842D02*
X124455826Y-62767795D01*
X124455826Y-62767795D02*
X124574874Y-62648747D01*
X124574874Y-62648747D02*
X124753445Y-62589223D01*
X124753445Y-62589223D02*
X124872493Y-62589223D01*
X124872493Y-62589223D02*
X125051064Y-62648747D01*
X125051064Y-62648747D02*
X125110588Y-62708271D01*
X126360588Y-63720176D02*
X126301064Y-63779700D01*
X126301064Y-63779700D02*
X126122493Y-63839223D01*
X126122493Y-63839223D02*
X126003445Y-63839223D01*
X126003445Y-63839223D02*
X125824874Y-63779700D01*
X125824874Y-63779700D02*
X125705826Y-63660652D01*
X125705826Y-63660652D02*
X125646303Y-63541604D01*
X125646303Y-63541604D02*
X125586779Y-63303509D01*
X125586779Y-63303509D02*
X125586779Y-63124938D01*
X125586779Y-63124938D02*
X125646303Y-62886842D01*
X125646303Y-62886842D02*
X125705826Y-62767795D01*
X125705826Y-62767795D02*
X125824874Y-62648747D01*
X125824874Y-62648747D02*
X126003445Y-62589223D01*
X126003445Y-62589223D02*
X126122493Y-62589223D01*
X126122493Y-62589223D02*
X126301064Y-62648747D01*
X126301064Y-62648747D02*
X126360588Y-62708271D01*
X128265350Y-63184461D02*
X128443922Y-63243985D01*
X128443922Y-63243985D02*
X128503445Y-63303509D01*
X128503445Y-63303509D02*
X128562969Y-63422557D01*
X128562969Y-63422557D02*
X128562969Y-63601128D01*
X128562969Y-63601128D02*
X128503445Y-63720176D01*
X128503445Y-63720176D02*
X128443922Y-63779700D01*
X128443922Y-63779700D02*
X128324874Y-63839223D01*
X128324874Y-63839223D02*
X127848684Y-63839223D01*
X127848684Y-63839223D02*
X127848684Y-62589223D01*
X127848684Y-62589223D02*
X128265350Y-62589223D01*
X128265350Y-62589223D02*
X128384398Y-62648747D01*
X128384398Y-62648747D02*
X128443922Y-62708271D01*
X128443922Y-62708271D02*
X128503445Y-62827319D01*
X128503445Y-62827319D02*
X128503445Y-62946366D01*
X128503445Y-62946366D02*
X128443922Y-63065414D01*
X128443922Y-63065414D02*
X128384398Y-63124938D01*
X128384398Y-63124938D02*
X128265350Y-63184461D01*
X128265350Y-63184461D02*
X127848684Y-63184461D01*
X129336779Y-63243985D02*
X129336779Y-63839223D01*
X128920112Y-62589223D02*
X129336779Y-63243985D01*
X129336779Y-63243985D02*
X129753445Y-62589223D01*
X130170113Y-63363033D02*
X131122494Y-63363033D01*
X131717732Y-63839223D02*
X131717732Y-62589223D01*
X131717732Y-62589223D02*
X132432017Y-63839223D01*
X132432017Y-63839223D02*
X132432017Y-62589223D01*
X133741541Y-63720176D02*
X133682017Y-63779700D01*
X133682017Y-63779700D02*
X133503446Y-63839223D01*
X133503446Y-63839223D02*
X133384398Y-63839223D01*
X133384398Y-63839223D02*
X133205827Y-63779700D01*
X133205827Y-63779700D02*
X133086779Y-63660652D01*
X133086779Y-63660652D02*
X133027256Y-63541604D01*
X133027256Y-63541604D02*
X132967732Y-63303509D01*
X132967732Y-63303509D02*
X132967732Y-63124938D01*
X132967732Y-63124938D02*
X133027256Y-62886842D01*
X133027256Y-62886842D02*
X133086779Y-62767795D01*
X133086779Y-62767795D02*
X133205827Y-62648747D01*
X133205827Y-62648747D02*
X133384398Y-62589223D01*
X133384398Y-62589223D02*
X133503446Y-62589223D01*
X133503446Y-62589223D02*
X133682017Y-62648747D01*
X133682017Y-62648747D02*
X133741541Y-62708271D01*
X135765351Y-63005890D02*
X135765351Y-63839223D01*
X135467732Y-62529700D02*
X135170113Y-63422557D01*
X135170113Y-63422557D02*
X135943922Y-63422557D01*
X136420113Y-63720176D02*
X136479636Y-63779700D01*
X136479636Y-63779700D02*
X136420113Y-63839223D01*
X136420113Y-63839223D02*
X136360589Y-63779700D01*
X136360589Y-63779700D02*
X136420113Y-63720176D01*
X136420113Y-63720176D02*
X136420113Y-63839223D01*
X137253446Y-62589223D02*
X137372493Y-62589223D01*
X137372493Y-62589223D02*
X137491541Y-62648747D01*
X137491541Y-62648747D02*
X137551065Y-62708271D01*
X137551065Y-62708271D02*
X137610589Y-62827319D01*
X137610589Y-62827319D02*
X137670112Y-63065414D01*
X137670112Y-63065414D02*
X137670112Y-63363033D01*
X137670112Y-63363033D02*
X137610589Y-63601128D01*
X137610589Y-63601128D02*
X137551065Y-63720176D01*
X137551065Y-63720176D02*
X137491541Y-63779700D01*
X137491541Y-63779700D02*
X137372493Y-63839223D01*
X137372493Y-63839223D02*
X137253446Y-63839223D01*
X137253446Y-63839223D02*
X137134398Y-63779700D01*
X137134398Y-63779700D02*
X137074874Y-63720176D01*
X137074874Y-63720176D02*
X137015351Y-63601128D01*
X137015351Y-63601128D02*
X136955827Y-63363033D01*
X136955827Y-63363033D02*
X136955827Y-63065414D01*
X136955827Y-63065414D02*
X137015351Y-62827319D01*
X137015351Y-62827319D02*
X137074874Y-62708271D01*
X137074874Y-62708271D02*
X137134398Y-62648747D01*
X137134398Y-62648747D02*
X137253446Y-62589223D01*
X108955826Y-97393628D02*
X108955826Y-98893628D01*
X108955826Y-97465057D02*
X109098684Y-97393628D01*
X109098684Y-97393628D02*
X109384398Y-97393628D01*
X109384398Y-97393628D02*
X109527255Y-97465057D01*
X109527255Y-97465057D02*
X109598684Y-97536485D01*
X109598684Y-97536485D02*
X109670112Y-97679342D01*
X109670112Y-97679342D02*
X109670112Y-98107914D01*
X109670112Y-98107914D02*
X109598684Y-98250771D01*
X109598684Y-98250771D02*
X109527255Y-98322200D01*
X109527255Y-98322200D02*
X109384398Y-98393628D01*
X109384398Y-98393628D02*
X109098684Y-98393628D01*
X109098684Y-98393628D02*
X108955826Y-98322200D01*
X110312969Y-98393628D02*
X110312969Y-96893628D01*
X110312969Y-97607914D02*
X111170112Y-97607914D01*
X111170112Y-98393628D02*
X111170112Y-96893628D01*
X111812970Y-98322200D02*
X112027256Y-98393628D01*
X112027256Y-98393628D02*
X112384398Y-98393628D01*
X112384398Y-98393628D02*
X112527256Y-98322200D01*
X112527256Y-98322200D02*
X112598684Y-98250771D01*
X112598684Y-98250771D02*
X112670113Y-98107914D01*
X112670113Y-98107914D02*
X112670113Y-97965057D01*
X112670113Y-97965057D02*
X112598684Y-97822200D01*
X112598684Y-97822200D02*
X112527256Y-97750771D01*
X112527256Y-97750771D02*
X112384398Y-97679342D01*
X112384398Y-97679342D02*
X112098684Y-97607914D01*
X112098684Y-97607914D02*
X111955827Y-97536485D01*
X111955827Y-97536485D02*
X111884398Y-97465057D01*
X111884398Y-97465057D02*
X111812970Y-97322200D01*
X111812970Y-97322200D02*
X111812970Y-97179342D01*
X111812970Y-97179342D02*
X111884398Y-97036485D01*
X111884398Y-97036485D02*
X111955827Y-96965057D01*
X111955827Y-96965057D02*
X112098684Y-96893628D01*
X112098684Y-96893628D02*
X112455827Y-96893628D01*
X112455827Y-96893628D02*
X112670113Y-96965057D01*
X113312969Y-98393628D02*
X113312969Y-97393628D01*
X113312969Y-96893628D02*
X113241541Y-96965057D01*
X113241541Y-96965057D02*
X113312969Y-97036485D01*
X113312969Y-97036485D02*
X113384398Y-96965057D01*
X113384398Y-96965057D02*
X113312969Y-96893628D01*
X113312969Y-96893628D02*
X113312969Y-97036485D01*
X114027255Y-98393628D02*
X114027255Y-97393628D01*
X114027255Y-97536485D02*
X114098684Y-97465057D01*
X114098684Y-97465057D02*
X114241541Y-97393628D01*
X114241541Y-97393628D02*
X114455827Y-97393628D01*
X114455827Y-97393628D02*
X114598684Y-97465057D01*
X114598684Y-97465057D02*
X114670113Y-97607914D01*
X114670113Y-97607914D02*
X114670113Y-98393628D01*
X114670113Y-97607914D02*
X114741541Y-97465057D01*
X114741541Y-97465057D02*
X114884398Y-97393628D01*
X114884398Y-97393628D02*
X115098684Y-97393628D01*
X115098684Y-97393628D02*
X115241541Y-97465057D01*
X115241541Y-97465057D02*
X115312970Y-97607914D01*
X115312970Y-97607914D02*
X115312970Y-98393628D01*
X115955827Y-97036485D02*
X116027255Y-96965057D01*
X116027255Y-96965057D02*
X116170113Y-96893628D01*
X116170113Y-96893628D02*
X116527255Y-96893628D01*
X116527255Y-96893628D02*
X116670113Y-96965057D01*
X116670113Y-96965057D02*
X116741541Y-97036485D01*
X116741541Y-97036485D02*
X116812970Y-97179342D01*
X116812970Y-97179342D02*
X116812970Y-97322200D01*
X116812970Y-97322200D02*
X116741541Y-97536485D01*
X116741541Y-97536485D02*
X115884398Y-98393628D01*
X115884398Y-98393628D02*
X116812970Y-98393628D01*
X118598683Y-98393628D02*
X118598683Y-97393628D01*
X118598683Y-97679342D02*
X118670112Y-97536485D01*
X118670112Y-97536485D02*
X118741541Y-97465057D01*
X118741541Y-97465057D02*
X118884398Y-97393628D01*
X118884398Y-97393628D02*
X119027255Y-97393628D01*
X120098683Y-98322200D02*
X119955826Y-98393628D01*
X119955826Y-98393628D02*
X119670112Y-98393628D01*
X119670112Y-98393628D02*
X119527254Y-98322200D01*
X119527254Y-98322200D02*
X119455826Y-98179342D01*
X119455826Y-98179342D02*
X119455826Y-97607914D01*
X119455826Y-97607914D02*
X119527254Y-97465057D01*
X119527254Y-97465057D02*
X119670112Y-97393628D01*
X119670112Y-97393628D02*
X119955826Y-97393628D01*
X119955826Y-97393628D02*
X120098683Y-97465057D01*
X120098683Y-97465057D02*
X120170112Y-97607914D01*
X120170112Y-97607914D02*
X120170112Y-97750771D01*
X120170112Y-97750771D02*
X119455826Y-97893628D01*
X120670111Y-97393628D02*
X121027254Y-98393628D01*
X121027254Y-98393628D02*
X121384397Y-97393628D01*
X123027254Y-97965057D02*
X123741540Y-97965057D01*
X122884397Y-98393628D02*
X123384397Y-96893628D01*
X123384397Y-96893628D02*
X123884397Y-98393628D01*
X108955826Y-100808628D02*
X108955826Y-99308628D01*
X108955826Y-99308628D02*
X109312969Y-99308628D01*
X109312969Y-99308628D02*
X109527255Y-99380057D01*
X109527255Y-99380057D02*
X109670112Y-99522914D01*
X109670112Y-99522914D02*
X109741541Y-99665771D01*
X109741541Y-99665771D02*
X109812969Y-99951485D01*
X109812969Y-99951485D02*
X109812969Y-100165771D01*
X109812969Y-100165771D02*
X109741541Y-100451485D01*
X109741541Y-100451485D02*
X109670112Y-100594342D01*
X109670112Y-100594342D02*
X109527255Y-100737200D01*
X109527255Y-100737200D02*
X109312969Y-100808628D01*
X109312969Y-100808628D02*
X108955826Y-100808628D01*
X111098684Y-100808628D02*
X111098684Y-100022914D01*
X111098684Y-100022914D02*
X111027255Y-99880057D01*
X111027255Y-99880057D02*
X110884398Y-99808628D01*
X110884398Y-99808628D02*
X110598684Y-99808628D01*
X110598684Y-99808628D02*
X110455826Y-99880057D01*
X111098684Y-100737200D02*
X110955826Y-100808628D01*
X110955826Y-100808628D02*
X110598684Y-100808628D01*
X110598684Y-100808628D02*
X110455826Y-100737200D01*
X110455826Y-100737200D02*
X110384398Y-100594342D01*
X110384398Y-100594342D02*
X110384398Y-100451485D01*
X110384398Y-100451485D02*
X110455826Y-100308628D01*
X110455826Y-100308628D02*
X110598684Y-100237200D01*
X110598684Y-100237200D02*
X110955826Y-100237200D01*
X110955826Y-100237200D02*
X111098684Y-100165771D01*
X111812969Y-100808628D02*
X111812969Y-99808628D01*
X111812969Y-100094342D02*
X111884398Y-99951485D01*
X111884398Y-99951485D02*
X111955827Y-99880057D01*
X111955827Y-99880057D02*
X112098684Y-99808628D01*
X112098684Y-99808628D02*
X112241541Y-99808628D01*
X112741540Y-100808628D02*
X112741540Y-99308628D01*
X112884398Y-100237200D02*
X113312969Y-100808628D01*
X113312969Y-99808628D02*
X112741540Y-100380057D01*
X114527255Y-100737200D02*
X114384398Y-100808628D01*
X114384398Y-100808628D02*
X114098684Y-100808628D01*
X114098684Y-100808628D02*
X113955826Y-100737200D01*
X113955826Y-100737200D02*
X113884398Y-100594342D01*
X113884398Y-100594342D02*
X113884398Y-100022914D01*
X113884398Y-100022914D02*
X113955826Y-99880057D01*
X113955826Y-99880057D02*
X114098684Y-99808628D01*
X114098684Y-99808628D02*
X114384398Y-99808628D01*
X114384398Y-99808628D02*
X114527255Y-99880057D01*
X114527255Y-99880057D02*
X114598684Y-100022914D01*
X114598684Y-100022914D02*
X114598684Y-100165771D01*
X114598684Y-100165771D02*
X113884398Y-100308628D01*
X115241540Y-100808628D02*
X115241540Y-99808628D01*
X115241540Y-100094342D02*
X115312969Y-99951485D01*
X115312969Y-99951485D02*
X115384398Y-99880057D01*
X115384398Y-99880057D02*
X115527255Y-99808628D01*
X115527255Y-99808628D02*
X115670112Y-99808628D01*
X115955826Y-99308628D02*
X116455826Y-100808628D01*
X116455826Y-100808628D02*
X116955826Y-99308628D01*
X117455825Y-100808628D02*
X117455825Y-99808628D01*
X117455825Y-99308628D02*
X117384397Y-99380057D01*
X117384397Y-99380057D02*
X117455825Y-99451485D01*
X117455825Y-99451485D02*
X117527254Y-99380057D01*
X117527254Y-99380057D02*
X117455825Y-99308628D01*
X117455825Y-99308628D02*
X117455825Y-99451485D01*
X118741540Y-100737200D02*
X118598683Y-100808628D01*
X118598683Y-100808628D02*
X118312969Y-100808628D01*
X118312969Y-100808628D02*
X118170111Y-100737200D01*
X118170111Y-100737200D02*
X118098683Y-100594342D01*
X118098683Y-100594342D02*
X118098683Y-100022914D01*
X118098683Y-100022914D02*
X118170111Y-99880057D01*
X118170111Y-99880057D02*
X118312969Y-99808628D01*
X118312969Y-99808628D02*
X118598683Y-99808628D01*
X118598683Y-99808628D02*
X118741540Y-99880057D01*
X118741540Y-99880057D02*
X118812969Y-100022914D01*
X118812969Y-100022914D02*
X118812969Y-100165771D01*
X118812969Y-100165771D02*
X118098683Y-100308628D01*
X119312968Y-99808628D02*
X119598683Y-100808628D01*
X119598683Y-100808628D02*
X119884397Y-100094342D01*
X119884397Y-100094342D02*
X120170111Y-100808628D01*
X120170111Y-100808628D02*
X120455825Y-99808628D01*
X121027254Y-100665771D02*
X121098683Y-100737200D01*
X121098683Y-100737200D02*
X121027254Y-100808628D01*
X121027254Y-100808628D02*
X120955826Y-100737200D01*
X120955826Y-100737200D02*
X121027254Y-100665771D01*
X121027254Y-100665771D02*
X121027254Y-100808628D01*
X122384398Y-100737200D02*
X122241540Y-100808628D01*
X122241540Y-100808628D02*
X121955826Y-100808628D01*
X121955826Y-100808628D02*
X121812969Y-100737200D01*
X121812969Y-100737200D02*
X121741540Y-100665771D01*
X121741540Y-100665771D02*
X121670112Y-100522914D01*
X121670112Y-100522914D02*
X121670112Y-100094342D01*
X121670112Y-100094342D02*
X121741540Y-99951485D01*
X121741540Y-99951485D02*
X121812969Y-99880057D01*
X121812969Y-99880057D02*
X121955826Y-99808628D01*
X121955826Y-99808628D02*
X122241540Y-99808628D01*
X122241540Y-99808628D02*
X122384398Y-99880057D01*
X123241540Y-100808628D02*
X123098683Y-100737200D01*
X123098683Y-100737200D02*
X123027254Y-100665771D01*
X123027254Y-100665771D02*
X122955826Y-100522914D01*
X122955826Y-100522914D02*
X122955826Y-100094342D01*
X122955826Y-100094342D02*
X123027254Y-99951485D01*
X123027254Y-99951485D02*
X123098683Y-99880057D01*
X123098683Y-99880057D02*
X123241540Y-99808628D01*
X123241540Y-99808628D02*
X123455826Y-99808628D01*
X123455826Y-99808628D02*
X123598683Y-99880057D01*
X123598683Y-99880057D02*
X123670112Y-99951485D01*
X123670112Y-99951485D02*
X123741540Y-100094342D01*
X123741540Y-100094342D02*
X123741540Y-100522914D01*
X123741540Y-100522914D02*
X123670112Y-100665771D01*
X123670112Y-100665771D02*
X123598683Y-100737200D01*
X123598683Y-100737200D02*
X123455826Y-100808628D01*
X123455826Y-100808628D02*
X123241540Y-100808628D01*
X124384397Y-100808628D02*
X124384397Y-99808628D01*
X124384397Y-99951485D02*
X124455826Y-99880057D01*
X124455826Y-99880057D02*
X124598683Y-99808628D01*
X124598683Y-99808628D02*
X124812969Y-99808628D01*
X124812969Y-99808628D02*
X124955826Y-99880057D01*
X124955826Y-99880057D02*
X125027255Y-100022914D01*
X125027255Y-100022914D02*
X125027255Y-100808628D01*
X125027255Y-100022914D02*
X125098683Y-99880057D01*
X125098683Y-99880057D02*
X125241540Y-99808628D01*
X125241540Y-99808628D02*
X125455826Y-99808628D01*
X125455826Y-99808628D02*
X125598683Y-99880057D01*
X125598683Y-99880057D02*
X125670112Y-100022914D01*
X125670112Y-100022914D02*
X125670112Y-100808628D01*
X118238095Y-72954819D02*
X118238095Y-73764342D01*
X118238095Y-73764342D02*
X118285714Y-73859580D01*
X118285714Y-73859580D02*
X118333333Y-73907200D01*
X118333333Y-73907200D02*
X118428571Y-73954819D01*
X118428571Y-73954819D02*
X118619047Y-73954819D01*
X118619047Y-73954819D02*
X118714285Y-73907200D01*
X118714285Y-73907200D02*
X118761904Y-73859580D01*
X118761904Y-73859580D02*
X118809523Y-73764342D01*
X118809523Y-73764342D02*
X118809523Y-72954819D01*
X119190476Y-72954819D02*
X119809523Y-72954819D01*
X119809523Y-72954819D02*
X119476190Y-73335771D01*
X119476190Y-73335771D02*
X119619047Y-73335771D01*
X119619047Y-73335771D02*
X119714285Y-73383390D01*
X119714285Y-73383390D02*
X119761904Y-73431009D01*
X119761904Y-73431009D02*
X119809523Y-73526247D01*
X119809523Y-73526247D02*
X119809523Y-73764342D01*
X119809523Y-73764342D02*
X119761904Y-73859580D01*
X119761904Y-73859580D02*
X119714285Y-73907200D01*
X119714285Y-73907200D02*
X119619047Y-73954819D01*
X119619047Y-73954819D02*
X119333333Y-73954819D01*
X119333333Y-73954819D02*
X119238095Y-73907200D01*
X119238095Y-73907200D02*
X119190476Y-73859580D01*
X128833333Y-113454819D02*
X128500000Y-112978628D01*
X128261905Y-113454819D02*
X128261905Y-112454819D01*
X128261905Y-112454819D02*
X128642857Y-112454819D01*
X128642857Y-112454819D02*
X128738095Y-112502438D01*
X128738095Y-112502438D02*
X128785714Y-112550057D01*
X128785714Y-112550057D02*
X128833333Y-112645295D01*
X128833333Y-112645295D02*
X128833333Y-112788152D01*
X128833333Y-112788152D02*
X128785714Y-112883390D01*
X128785714Y-112883390D02*
X128738095Y-112931009D01*
X128738095Y-112931009D02*
X128642857Y-112978628D01*
X128642857Y-112978628D02*
X128261905Y-112978628D01*
X129738095Y-112454819D02*
X129261905Y-112454819D01*
X129261905Y-112454819D02*
X129214286Y-112931009D01*
X129214286Y-112931009D02*
X129261905Y-112883390D01*
X129261905Y-112883390D02*
X129357143Y-112835771D01*
X129357143Y-112835771D02*
X129595238Y-112835771D01*
X129595238Y-112835771D02*
X129690476Y-112883390D01*
X129690476Y-112883390D02*
X129738095Y-112931009D01*
X129738095Y-112931009D02*
X129785714Y-113026247D01*
X129785714Y-113026247D02*
X129785714Y-113264342D01*
X129785714Y-113264342D02*
X129738095Y-113359580D01*
X129738095Y-113359580D02*
X129690476Y-113407200D01*
X129690476Y-113407200D02*
X129595238Y-113454819D01*
X129595238Y-113454819D02*
X129357143Y-113454819D01*
X129357143Y-113454819D02*
X129261905Y-113407200D01*
X129261905Y-113407200D02*
X129214286Y-113359580D01*
X134357142Y-66454819D02*
X134023809Y-65978628D01*
X133785714Y-66454819D02*
X133785714Y-65454819D01*
X133785714Y-65454819D02*
X134166666Y-65454819D01*
X134166666Y-65454819D02*
X134261904Y-65502438D01*
X134261904Y-65502438D02*
X134309523Y-65550057D01*
X134309523Y-65550057D02*
X134357142Y-65645295D01*
X134357142Y-65645295D02*
X134357142Y-65788152D01*
X134357142Y-65788152D02*
X134309523Y-65883390D01*
X134309523Y-65883390D02*
X134261904Y-65931009D01*
X134261904Y-65931009D02*
X134166666Y-65978628D01*
X134166666Y-65978628D02*
X133785714Y-65978628D01*
X135309523Y-66454819D02*
X134738095Y-66454819D01*
X135023809Y-66454819D02*
X135023809Y-65454819D01*
X135023809Y-65454819D02*
X134928571Y-65597676D01*
X134928571Y-65597676D02*
X134833333Y-65692914D01*
X134833333Y-65692914D02*
X134738095Y-65740533D01*
X136166666Y-65788152D02*
X136166666Y-66454819D01*
X135928571Y-65407200D02*
X135690476Y-66121485D01*
X135690476Y-66121485D02*
X136309523Y-66121485D01*
X106833333Y-94954819D02*
X106500000Y-94478628D01*
X106261905Y-94954819D02*
X106261905Y-93954819D01*
X106261905Y-93954819D02*
X106642857Y-93954819D01*
X106642857Y-93954819D02*
X106738095Y-94002438D01*
X106738095Y-94002438D02*
X106785714Y-94050057D01*
X106785714Y-94050057D02*
X106833333Y-94145295D01*
X106833333Y-94145295D02*
X106833333Y-94288152D01*
X106833333Y-94288152D02*
X106785714Y-94383390D01*
X106785714Y-94383390D02*
X106738095Y-94431009D01*
X106738095Y-94431009D02*
X106642857Y-94478628D01*
X106642857Y-94478628D02*
X106261905Y-94478628D01*
X107404762Y-94383390D02*
X107309524Y-94335771D01*
X107309524Y-94335771D02*
X107261905Y-94288152D01*
X107261905Y-94288152D02*
X107214286Y-94192914D01*
X107214286Y-94192914D02*
X107214286Y-94145295D01*
X107214286Y-94145295D02*
X107261905Y-94050057D01*
X107261905Y-94050057D02*
X107309524Y-94002438D01*
X107309524Y-94002438D02*
X107404762Y-93954819D01*
X107404762Y-93954819D02*
X107595238Y-93954819D01*
X107595238Y-93954819D02*
X107690476Y-94002438D01*
X107690476Y-94002438D02*
X107738095Y-94050057D01*
X107738095Y-94050057D02*
X107785714Y-94145295D01*
X107785714Y-94145295D02*
X107785714Y-94192914D01*
X107785714Y-94192914D02*
X107738095Y-94288152D01*
X107738095Y-94288152D02*
X107690476Y-94335771D01*
X107690476Y-94335771D02*
X107595238Y-94383390D01*
X107595238Y-94383390D02*
X107404762Y-94383390D01*
X107404762Y-94383390D02*
X107309524Y-94431009D01*
X107309524Y-94431009D02*
X107261905Y-94478628D01*
X107261905Y-94478628D02*
X107214286Y-94573866D01*
X107214286Y-94573866D02*
X107214286Y-94764342D01*
X107214286Y-94764342D02*
X107261905Y-94859580D01*
X107261905Y-94859580D02*
X107309524Y-94907200D01*
X107309524Y-94907200D02*
X107404762Y-94954819D01*
X107404762Y-94954819D02*
X107595238Y-94954819D01*
X107595238Y-94954819D02*
X107690476Y-94907200D01*
X107690476Y-94907200D02*
X107738095Y-94859580D01*
X107738095Y-94859580D02*
X107785714Y-94764342D01*
X107785714Y-94764342D02*
X107785714Y-94573866D01*
X107785714Y-94573866D02*
X107738095Y-94478628D01*
X107738095Y-94478628D02*
X107690476Y-94431009D01*
X107690476Y-94431009D02*
X107595238Y-94383390D01*
X112517857Y-94737140D02*
X112517857Y-95570473D01*
X112220238Y-94260950D02*
X111922619Y-95153807D01*
X111922619Y-95153807D02*
X112696428Y-95153807D01*
X113172619Y-94737140D02*
X113172619Y-95987140D01*
X113172619Y-94796664D02*
X113291666Y-94737140D01*
X113291666Y-94737140D02*
X113529761Y-94737140D01*
X113529761Y-94737140D02*
X113648809Y-94796664D01*
X113648809Y-94796664D02*
X113708333Y-94856188D01*
X113708333Y-94856188D02*
X113767857Y-94975235D01*
X113767857Y-94975235D02*
X113767857Y-95332378D01*
X113767857Y-95332378D02*
X113708333Y-95451426D01*
X113708333Y-95451426D02*
X113648809Y-95510950D01*
X113648809Y-95510950D02*
X113529761Y-95570473D01*
X113529761Y-95570473D02*
X113291666Y-95570473D01*
X113291666Y-95570473D02*
X113172619Y-95510950D01*
X114303571Y-95570473D02*
X114303571Y-94320473D01*
X114303571Y-94915711D02*
X115017856Y-94915711D01*
X115017856Y-95570473D02*
X115017856Y-94320473D01*
X112238095Y-75454819D02*
X112809523Y-75454819D01*
X112523809Y-76454819D02*
X112523809Y-75454819D01*
X113142857Y-76454819D02*
X113142857Y-75454819D01*
X113142857Y-75454819D02*
X113523809Y-75454819D01*
X113523809Y-75454819D02*
X113619047Y-75502438D01*
X113619047Y-75502438D02*
X113666666Y-75550057D01*
X113666666Y-75550057D02*
X113714285Y-75645295D01*
X113714285Y-75645295D02*
X113714285Y-75788152D01*
X113714285Y-75788152D02*
X113666666Y-75883390D01*
X113666666Y-75883390D02*
X113619047Y-75931009D01*
X113619047Y-75931009D02*
X113523809Y-75978628D01*
X113523809Y-75978628D02*
X113142857Y-75978628D01*
X114095238Y-75550057D02*
X114142857Y-75502438D01*
X114142857Y-75502438D02*
X114238095Y-75454819D01*
X114238095Y-75454819D02*
X114476190Y-75454819D01*
X114476190Y-75454819D02*
X114571428Y-75502438D01*
X114571428Y-75502438D02*
X114619047Y-75550057D01*
X114619047Y-75550057D02*
X114666666Y-75645295D01*
X114666666Y-75645295D02*
X114666666Y-75740533D01*
X114666666Y-75740533D02*
X114619047Y-75883390D01*
X114619047Y-75883390D02*
X114047619Y-76454819D01*
X114047619Y-76454819D02*
X114666666Y-76454819D01*
X111000000Y-78594283D02*
X111952381Y-78594283D01*
X111476190Y-79070473D02*
X111476190Y-78118092D01*
X112488095Y-77939521D02*
X112547619Y-77879997D01*
X112547619Y-77879997D02*
X112666666Y-77820473D01*
X112666666Y-77820473D02*
X112964285Y-77820473D01*
X112964285Y-77820473D02*
X113083333Y-77879997D01*
X113083333Y-77879997D02*
X113142857Y-77939521D01*
X113142857Y-77939521D02*
X113202380Y-78058569D01*
X113202380Y-78058569D02*
X113202380Y-78177616D01*
X113202380Y-78177616D02*
X113142857Y-78356188D01*
X113142857Y-78356188D02*
X112428571Y-79070473D01*
X112428571Y-79070473D02*
X113202380Y-79070473D01*
X113738095Y-78951426D02*
X113797618Y-79010950D01*
X113797618Y-79010950D02*
X113738095Y-79070473D01*
X113738095Y-79070473D02*
X113678571Y-79010950D01*
X113678571Y-79010950D02*
X113738095Y-78951426D01*
X113738095Y-78951426D02*
X113738095Y-79070473D01*
X114928571Y-77820473D02*
X114333333Y-77820473D01*
X114333333Y-77820473D02*
X114273809Y-78415711D01*
X114273809Y-78415711D02*
X114333333Y-78356188D01*
X114333333Y-78356188D02*
X114452380Y-78296664D01*
X114452380Y-78296664D02*
X114749999Y-78296664D01*
X114749999Y-78296664D02*
X114869047Y-78356188D01*
X114869047Y-78356188D02*
X114928571Y-78415711D01*
X114928571Y-78415711D02*
X114988094Y-78534759D01*
X114988094Y-78534759D02*
X114988094Y-78832378D01*
X114988094Y-78832378D02*
X114928571Y-78951426D01*
X114928571Y-78951426D02*
X114869047Y-79010950D01*
X114869047Y-79010950D02*
X114749999Y-79070473D01*
X114749999Y-79070473D02*
X114452380Y-79070473D01*
X114452380Y-79070473D02*
X114333333Y-79010950D01*
X114333333Y-79010950D02*
X114273809Y-78951426D01*
X115345237Y-77820473D02*
X115761904Y-79070473D01*
X115761904Y-79070473D02*
X116178570Y-77820473D01*
X124357142Y-74954819D02*
X124023809Y-74478628D01*
X123785714Y-74954819D02*
X123785714Y-73954819D01*
X123785714Y-73954819D02*
X124166666Y-73954819D01*
X124166666Y-73954819D02*
X124261904Y-74002438D01*
X124261904Y-74002438D02*
X124309523Y-74050057D01*
X124309523Y-74050057D02*
X124357142Y-74145295D01*
X124357142Y-74145295D02*
X124357142Y-74288152D01*
X124357142Y-74288152D02*
X124309523Y-74383390D01*
X124309523Y-74383390D02*
X124261904Y-74431009D01*
X124261904Y-74431009D02*
X124166666Y-74478628D01*
X124166666Y-74478628D02*
X123785714Y-74478628D01*
X125309523Y-74954819D02*
X124738095Y-74954819D01*
X125023809Y-74954819D02*
X125023809Y-73954819D01*
X125023809Y-73954819D02*
X124928571Y-74097676D01*
X124928571Y-74097676D02*
X124833333Y-74192914D01*
X124833333Y-74192914D02*
X124738095Y-74240533D01*
X125690476Y-74050057D02*
X125738095Y-74002438D01*
X125738095Y-74002438D02*
X125833333Y-73954819D01*
X125833333Y-73954819D02*
X126071428Y-73954819D01*
X126071428Y-73954819D02*
X126166666Y-74002438D01*
X126166666Y-74002438D02*
X126214285Y-74050057D01*
X126214285Y-74050057D02*
X126261904Y-74145295D01*
X126261904Y-74145295D02*
X126261904Y-74240533D01*
X126261904Y-74240533D02*
X126214285Y-74383390D01*
X126214285Y-74383390D02*
X125642857Y-74954819D01*
X125642857Y-74954819D02*
X126261904Y-74954819D01*
X107293333Y-80954819D02*
X106960000Y-80478628D01*
X106721905Y-80954819D02*
X106721905Y-79954819D01*
X106721905Y-79954819D02*
X107102857Y-79954819D01*
X107102857Y-79954819D02*
X107198095Y-80002438D01*
X107198095Y-80002438D02*
X107245714Y-80050057D01*
X107245714Y-80050057D02*
X107293333Y-80145295D01*
X107293333Y-80145295D02*
X107293333Y-80288152D01*
X107293333Y-80288152D02*
X107245714Y-80383390D01*
X107245714Y-80383390D02*
X107198095Y-80431009D01*
X107198095Y-80431009D02*
X107102857Y-80478628D01*
X107102857Y-80478628D02*
X106721905Y-80478628D01*
X108150476Y-79954819D02*
X107960000Y-79954819D01*
X107960000Y-79954819D02*
X107864762Y-80002438D01*
X107864762Y-80002438D02*
X107817143Y-80050057D01*
X107817143Y-80050057D02*
X107721905Y-80192914D01*
X107721905Y-80192914D02*
X107674286Y-80383390D01*
X107674286Y-80383390D02*
X107674286Y-80764342D01*
X107674286Y-80764342D02*
X107721905Y-80859580D01*
X107721905Y-80859580D02*
X107769524Y-80907200D01*
X107769524Y-80907200D02*
X107864762Y-80954819D01*
X107864762Y-80954819D02*
X108055238Y-80954819D01*
X108055238Y-80954819D02*
X108150476Y-80907200D01*
X108150476Y-80907200D02*
X108198095Y-80859580D01*
X108198095Y-80859580D02*
X108245714Y-80764342D01*
X108245714Y-80764342D02*
X108245714Y-80526247D01*
X108245714Y-80526247D02*
X108198095Y-80431009D01*
X108198095Y-80431009D02*
X108150476Y-80383390D01*
X108150476Y-80383390D02*
X108055238Y-80335771D01*
X108055238Y-80335771D02*
X107864762Y-80335771D01*
X107864762Y-80335771D02*
X107769524Y-80383390D01*
X107769524Y-80383390D02*
X107721905Y-80431009D01*
X107721905Y-80431009D02*
X107674286Y-80526247D01*
X125333333Y-71859580D02*
X125285714Y-71907200D01*
X125285714Y-71907200D02*
X125142857Y-71954819D01*
X125142857Y-71954819D02*
X125047619Y-71954819D01*
X125047619Y-71954819D02*
X124904762Y-71907200D01*
X124904762Y-71907200D02*
X124809524Y-71811961D01*
X124809524Y-71811961D02*
X124761905Y-71716723D01*
X124761905Y-71716723D02*
X124714286Y-71526247D01*
X124714286Y-71526247D02*
X124714286Y-71383390D01*
X124714286Y-71383390D02*
X124761905Y-71192914D01*
X124761905Y-71192914D02*
X124809524Y-71097676D01*
X124809524Y-71097676D02*
X124904762Y-71002438D01*
X124904762Y-71002438D02*
X125047619Y-70954819D01*
X125047619Y-70954819D02*
X125142857Y-70954819D01*
X125142857Y-70954819D02*
X125285714Y-71002438D01*
X125285714Y-71002438D02*
X125333333Y-71050057D01*
X126238095Y-70954819D02*
X125761905Y-70954819D01*
X125761905Y-70954819D02*
X125714286Y-71431009D01*
X125714286Y-71431009D02*
X125761905Y-71383390D01*
X125761905Y-71383390D02*
X125857143Y-71335771D01*
X125857143Y-71335771D02*
X126095238Y-71335771D01*
X126095238Y-71335771D02*
X126190476Y-71383390D01*
X126190476Y-71383390D02*
X126238095Y-71431009D01*
X126238095Y-71431009D02*
X126285714Y-71526247D01*
X126285714Y-71526247D02*
X126285714Y-71764342D01*
X126285714Y-71764342D02*
X126238095Y-71859580D01*
X126238095Y-71859580D02*
X126190476Y-71907200D01*
X126190476Y-71907200D02*
X126095238Y-71954819D01*
X126095238Y-71954819D02*
X125857143Y-71954819D01*
X125857143Y-71954819D02*
X125761905Y-71907200D01*
X125761905Y-71907200D02*
X125714286Y-71859580D01*
X110293333Y-80859580D02*
X110245714Y-80907200D01*
X110245714Y-80907200D02*
X110102857Y-80954819D01*
X110102857Y-80954819D02*
X110007619Y-80954819D01*
X110007619Y-80954819D02*
X109864762Y-80907200D01*
X109864762Y-80907200D02*
X109769524Y-80811961D01*
X109769524Y-80811961D02*
X109721905Y-80716723D01*
X109721905Y-80716723D02*
X109674286Y-80526247D01*
X109674286Y-80526247D02*
X109674286Y-80383390D01*
X109674286Y-80383390D02*
X109721905Y-80192914D01*
X109721905Y-80192914D02*
X109769524Y-80097676D01*
X109769524Y-80097676D02*
X109864762Y-80002438D01*
X109864762Y-80002438D02*
X110007619Y-79954819D01*
X110007619Y-79954819D02*
X110102857Y-79954819D01*
X110102857Y-79954819D02*
X110245714Y-80002438D01*
X110245714Y-80002438D02*
X110293333Y-80050057D01*
X110626667Y-79954819D02*
X111245714Y-79954819D01*
X111245714Y-79954819D02*
X110912381Y-80335771D01*
X110912381Y-80335771D02*
X111055238Y-80335771D01*
X111055238Y-80335771D02*
X111150476Y-80383390D01*
X111150476Y-80383390D02*
X111198095Y-80431009D01*
X111198095Y-80431009D02*
X111245714Y-80526247D01*
X111245714Y-80526247D02*
X111245714Y-80764342D01*
X111245714Y-80764342D02*
X111198095Y-80859580D01*
X111198095Y-80859580D02*
X111150476Y-80907200D01*
X111150476Y-80907200D02*
X111055238Y-80954819D01*
X111055238Y-80954819D02*
X110769524Y-80954819D01*
X110769524Y-80954819D02*
X110674286Y-80907200D01*
X110674286Y-80907200D02*
X110626667Y-80859580D01*
X116333333Y-65954819D02*
X116000000Y-65478628D01*
X115761905Y-65954819D02*
X115761905Y-64954819D01*
X115761905Y-64954819D02*
X116142857Y-64954819D01*
X116142857Y-64954819D02*
X116238095Y-65002438D01*
X116238095Y-65002438D02*
X116285714Y-65050057D01*
X116285714Y-65050057D02*
X116333333Y-65145295D01*
X116333333Y-65145295D02*
X116333333Y-65288152D01*
X116333333Y-65288152D02*
X116285714Y-65383390D01*
X116285714Y-65383390D02*
X116238095Y-65431009D01*
X116238095Y-65431009D02*
X116142857Y-65478628D01*
X116142857Y-65478628D02*
X115761905Y-65478628D01*
X117190476Y-65288152D02*
X117190476Y-65954819D01*
X116952381Y-64907200D02*
X116714286Y-65621485D01*
X116714286Y-65621485D02*
X117333333Y-65621485D01*
X104285714Y-132454819D02*
X104285714Y-131454819D01*
X104285714Y-131454819D02*
X104666666Y-131454819D01*
X104666666Y-131454819D02*
X104761904Y-131502438D01*
X104761904Y-131502438D02*
X104809523Y-131550057D01*
X104809523Y-131550057D02*
X104857142Y-131645295D01*
X104857142Y-131645295D02*
X104857142Y-131788152D01*
X104857142Y-131788152D02*
X104809523Y-131883390D01*
X104809523Y-131883390D02*
X104761904Y-131931009D01*
X104761904Y-131931009D02*
X104666666Y-131978628D01*
X104666666Y-131978628D02*
X104285714Y-131978628D01*
X105190476Y-131788152D02*
X105380952Y-132454819D01*
X105380952Y-132454819D02*
X105571428Y-131978628D01*
X105571428Y-131978628D02*
X105761904Y-132454819D01*
X105761904Y-132454819D02*
X105952380Y-131788152D01*
X106333333Y-132454819D02*
X106333333Y-131788152D01*
X106333333Y-131978628D02*
X106380952Y-131883390D01*
X106380952Y-131883390D02*
X106428571Y-131835771D01*
X106428571Y-131835771D02*
X106523809Y-131788152D01*
X106523809Y-131788152D02*
X106619047Y-131788152D01*
X106952381Y-132073866D02*
X107714286Y-132073866D01*
X118261905Y-137954819D02*
X118261905Y-136954819D01*
X118261905Y-136954819D02*
X118500000Y-136954819D01*
X118500000Y-136954819D02*
X118642857Y-137002438D01*
X118642857Y-137002438D02*
X118738095Y-137097676D01*
X118738095Y-137097676D02*
X118785714Y-137192914D01*
X118785714Y-137192914D02*
X118833333Y-137383390D01*
X118833333Y-137383390D02*
X118833333Y-137526247D01*
X118833333Y-137526247D02*
X118785714Y-137716723D01*
X118785714Y-137716723D02*
X118738095Y-137811961D01*
X118738095Y-137811961D02*
X118642857Y-137907200D01*
X118642857Y-137907200D02*
X118500000Y-137954819D01*
X118500000Y-137954819D02*
X118261905Y-137954819D01*
X119214286Y-137050057D02*
X119261905Y-137002438D01*
X119261905Y-137002438D02*
X119357143Y-136954819D01*
X119357143Y-136954819D02*
X119595238Y-136954819D01*
X119595238Y-136954819D02*
X119690476Y-137002438D01*
X119690476Y-137002438D02*
X119738095Y-137050057D01*
X119738095Y-137050057D02*
X119785714Y-137145295D01*
X119785714Y-137145295D02*
X119785714Y-137240533D01*
X119785714Y-137240533D02*
X119738095Y-137383390D01*
X119738095Y-137383390D02*
X119166667Y-137954819D01*
X119166667Y-137954819D02*
X119785714Y-137954819D01*
X118793333Y-80954819D02*
X118460000Y-80478628D01*
X118221905Y-80954819D02*
X118221905Y-79954819D01*
X118221905Y-79954819D02*
X118602857Y-79954819D01*
X118602857Y-79954819D02*
X118698095Y-80002438D01*
X118698095Y-80002438D02*
X118745714Y-80050057D01*
X118745714Y-80050057D02*
X118793333Y-80145295D01*
X118793333Y-80145295D02*
X118793333Y-80288152D01*
X118793333Y-80288152D02*
X118745714Y-80383390D01*
X118745714Y-80383390D02*
X118698095Y-80431009D01*
X118698095Y-80431009D02*
X118602857Y-80478628D01*
X118602857Y-80478628D02*
X118221905Y-80478628D01*
X119126667Y-79954819D02*
X119793333Y-79954819D01*
X119793333Y-79954819D02*
X119364762Y-80954819D01*
X109285714Y-132454819D02*
X109285714Y-131454819D01*
X109285714Y-131454819D02*
X109666666Y-131454819D01*
X109666666Y-131454819D02*
X109761904Y-131502438D01*
X109761904Y-131502438D02*
X109809523Y-131550057D01*
X109809523Y-131550057D02*
X109857142Y-131645295D01*
X109857142Y-131645295D02*
X109857142Y-131788152D01*
X109857142Y-131788152D02*
X109809523Y-131883390D01*
X109809523Y-131883390D02*
X109761904Y-131931009D01*
X109761904Y-131931009D02*
X109666666Y-131978628D01*
X109666666Y-131978628D02*
X109285714Y-131978628D01*
X110190476Y-131788152D02*
X110380952Y-132454819D01*
X110380952Y-132454819D02*
X110571428Y-131978628D01*
X110571428Y-131978628D02*
X110761904Y-132454819D01*
X110761904Y-132454819D02*
X110952380Y-131788152D01*
X111333333Y-132454819D02*
X111333333Y-131788152D01*
X111333333Y-131978628D02*
X111380952Y-131883390D01*
X111380952Y-131883390D02*
X111428571Y-131835771D01*
X111428571Y-131835771D02*
X111523809Y-131788152D01*
X111523809Y-131788152D02*
X111619047Y-131788152D01*
X111952381Y-132073866D02*
X112714286Y-132073866D01*
X112333333Y-132454819D02*
X112333333Y-131692914D01*
X112817142Y-80954819D02*
X112483809Y-80478628D01*
X112245714Y-80954819D02*
X112245714Y-79954819D01*
X112245714Y-79954819D02*
X112626666Y-79954819D01*
X112626666Y-79954819D02*
X112721904Y-80002438D01*
X112721904Y-80002438D02*
X112769523Y-80050057D01*
X112769523Y-80050057D02*
X112817142Y-80145295D01*
X112817142Y-80145295D02*
X112817142Y-80288152D01*
X112817142Y-80288152D02*
X112769523Y-80383390D01*
X112769523Y-80383390D02*
X112721904Y-80431009D01*
X112721904Y-80431009D02*
X112626666Y-80478628D01*
X112626666Y-80478628D02*
X112245714Y-80478628D01*
X113769523Y-80954819D02*
X113198095Y-80954819D01*
X113483809Y-80954819D02*
X113483809Y-79954819D01*
X113483809Y-79954819D02*
X113388571Y-80097676D01*
X113388571Y-80097676D02*
X113293333Y-80192914D01*
X113293333Y-80192914D02*
X113198095Y-80240533D01*
X114388571Y-79954819D02*
X114483809Y-79954819D01*
X114483809Y-79954819D02*
X114579047Y-80002438D01*
X114579047Y-80002438D02*
X114626666Y-80050057D01*
X114626666Y-80050057D02*
X114674285Y-80145295D01*
X114674285Y-80145295D02*
X114721904Y-80335771D01*
X114721904Y-80335771D02*
X114721904Y-80573866D01*
X114721904Y-80573866D02*
X114674285Y-80764342D01*
X114674285Y-80764342D02*
X114626666Y-80859580D01*
X114626666Y-80859580D02*
X114579047Y-80907200D01*
X114579047Y-80907200D02*
X114483809Y-80954819D01*
X114483809Y-80954819D02*
X114388571Y-80954819D01*
X114388571Y-80954819D02*
X114293333Y-80907200D01*
X114293333Y-80907200D02*
X114245714Y-80859580D01*
X114245714Y-80859580D02*
X114198095Y-80764342D01*
X114198095Y-80764342D02*
X114150476Y-80573866D01*
X114150476Y-80573866D02*
X114150476Y-80335771D01*
X114150476Y-80335771D02*
X114198095Y-80145295D01*
X114198095Y-80145295D02*
X114245714Y-80050057D01*
X114245714Y-80050057D02*
X114293333Y-80002438D01*
X114293333Y-80002438D02*
X114388571Y-79954819D01*
X121793333Y-80859580D02*
X121745714Y-80907200D01*
X121745714Y-80907200D02*
X121602857Y-80954819D01*
X121602857Y-80954819D02*
X121507619Y-80954819D01*
X121507619Y-80954819D02*
X121364762Y-80907200D01*
X121364762Y-80907200D02*
X121269524Y-80811961D01*
X121269524Y-80811961D02*
X121221905Y-80716723D01*
X121221905Y-80716723D02*
X121174286Y-80526247D01*
X121174286Y-80526247D02*
X121174286Y-80383390D01*
X121174286Y-80383390D02*
X121221905Y-80192914D01*
X121221905Y-80192914D02*
X121269524Y-80097676D01*
X121269524Y-80097676D02*
X121364762Y-80002438D01*
X121364762Y-80002438D02*
X121507619Y-79954819D01*
X121507619Y-79954819D02*
X121602857Y-79954819D01*
X121602857Y-79954819D02*
X121745714Y-80002438D01*
X121745714Y-80002438D02*
X121793333Y-80050057D01*
X122650476Y-80288152D02*
X122650476Y-80954819D01*
X122412381Y-79907200D02*
X122174286Y-80621485D01*
X122174286Y-80621485D02*
X122793333Y-80621485D01*
X124317142Y-80954819D02*
X123983809Y-80478628D01*
X123745714Y-80954819D02*
X123745714Y-79954819D01*
X123745714Y-79954819D02*
X124126666Y-79954819D01*
X124126666Y-79954819D02*
X124221904Y-80002438D01*
X124221904Y-80002438D02*
X124269523Y-80050057D01*
X124269523Y-80050057D02*
X124317142Y-80145295D01*
X124317142Y-80145295D02*
X124317142Y-80288152D01*
X124317142Y-80288152D02*
X124269523Y-80383390D01*
X124269523Y-80383390D02*
X124221904Y-80431009D01*
X124221904Y-80431009D02*
X124126666Y-80478628D01*
X124126666Y-80478628D02*
X123745714Y-80478628D01*
X125269523Y-80954819D02*
X124698095Y-80954819D01*
X124983809Y-80954819D02*
X124983809Y-79954819D01*
X124983809Y-79954819D02*
X124888571Y-80097676D01*
X124888571Y-80097676D02*
X124793333Y-80192914D01*
X124793333Y-80192914D02*
X124698095Y-80240533D01*
X126221904Y-80954819D02*
X125650476Y-80954819D01*
X125936190Y-80954819D02*
X125936190Y-79954819D01*
X125936190Y-79954819D02*
X125840952Y-80097676D01*
X125840952Y-80097676D02*
X125745714Y-80192914D01*
X125745714Y-80192914D02*
X125650476Y-80240533D01*
X128357142Y-67954819D02*
X128023809Y-67478628D01*
X127785714Y-67954819D02*
X127785714Y-66954819D01*
X127785714Y-66954819D02*
X128166666Y-66954819D01*
X128166666Y-66954819D02*
X128261904Y-67002438D01*
X128261904Y-67002438D02*
X128309523Y-67050057D01*
X128309523Y-67050057D02*
X128357142Y-67145295D01*
X128357142Y-67145295D02*
X128357142Y-67288152D01*
X128357142Y-67288152D02*
X128309523Y-67383390D01*
X128309523Y-67383390D02*
X128261904Y-67431009D01*
X128261904Y-67431009D02*
X128166666Y-67478628D01*
X128166666Y-67478628D02*
X127785714Y-67478628D01*
X129309523Y-67954819D02*
X128738095Y-67954819D01*
X129023809Y-67954819D02*
X129023809Y-66954819D01*
X129023809Y-66954819D02*
X128928571Y-67097676D01*
X128928571Y-67097676D02*
X128833333Y-67192914D01*
X128833333Y-67192914D02*
X128738095Y-67240533D01*
X129642857Y-66954819D02*
X130261904Y-66954819D01*
X130261904Y-66954819D02*
X129928571Y-67335771D01*
X129928571Y-67335771D02*
X130071428Y-67335771D01*
X130071428Y-67335771D02*
X130166666Y-67383390D01*
X130166666Y-67383390D02*
X130214285Y-67431009D01*
X130214285Y-67431009D02*
X130261904Y-67526247D01*
X130261904Y-67526247D02*
X130261904Y-67764342D01*
X130261904Y-67764342D02*
X130214285Y-67859580D01*
X130214285Y-67859580D02*
X130166666Y-67907200D01*
X130166666Y-67907200D02*
X130071428Y-67954819D01*
X130071428Y-67954819D02*
X129785714Y-67954819D01*
X129785714Y-67954819D02*
X129690476Y-67907200D01*
X129690476Y-67907200D02*
X129642857Y-67859580D01*
X113738095Y-116954819D02*
X114309523Y-116954819D01*
X114023809Y-117954819D02*
X114023809Y-116954819D01*
X114642857Y-117954819D02*
X114642857Y-116954819D01*
X114642857Y-116954819D02*
X115023809Y-116954819D01*
X115023809Y-116954819D02*
X115119047Y-117002438D01*
X115119047Y-117002438D02*
X115166666Y-117050057D01*
X115166666Y-117050057D02*
X115214285Y-117145295D01*
X115214285Y-117145295D02*
X115214285Y-117288152D01*
X115214285Y-117288152D02*
X115166666Y-117383390D01*
X115166666Y-117383390D02*
X115119047Y-117431009D01*
X115119047Y-117431009D02*
X115023809Y-117478628D01*
X115023809Y-117478628D02*
X114642857Y-117478628D01*
X116166666Y-117954819D02*
X115595238Y-117954819D01*
X115880952Y-117954819D02*
X115880952Y-116954819D01*
X115880952Y-116954819D02*
X115785714Y-117097676D01*
X115785714Y-117097676D02*
X115690476Y-117192914D01*
X115690476Y-117192914D02*
X115595238Y-117240533D01*
X112500000Y-122737140D02*
X112500000Y-123987140D01*
X112500000Y-122796664D02*
X112619047Y-122737140D01*
X112619047Y-122737140D02*
X112857142Y-122737140D01*
X112857142Y-122737140D02*
X112976190Y-122796664D01*
X112976190Y-122796664D02*
X113035714Y-122856188D01*
X113035714Y-122856188D02*
X113095238Y-122975235D01*
X113095238Y-122975235D02*
X113095238Y-123332378D01*
X113095238Y-123332378D02*
X113035714Y-123451426D01*
X113035714Y-123451426D02*
X112976190Y-123510950D01*
X112976190Y-123510950D02*
X112857142Y-123570473D01*
X112857142Y-123570473D02*
X112619047Y-123570473D01*
X112619047Y-123570473D02*
X112500000Y-123510950D01*
X113630952Y-123570473D02*
X113630952Y-122320473D01*
X113630952Y-122915711D02*
X114345237Y-122915711D01*
X114345237Y-123570473D02*
X114345237Y-122320473D01*
X115178571Y-122320473D02*
X115416666Y-122320473D01*
X115416666Y-122320473D02*
X115535714Y-122379997D01*
X115535714Y-122379997D02*
X115654761Y-122499045D01*
X115654761Y-122499045D02*
X115714285Y-122737140D01*
X115714285Y-122737140D02*
X115714285Y-123153807D01*
X115714285Y-123153807D02*
X115654761Y-123391902D01*
X115654761Y-123391902D02*
X115535714Y-123510950D01*
X115535714Y-123510950D02*
X115416666Y-123570473D01*
X115416666Y-123570473D02*
X115178571Y-123570473D01*
X115178571Y-123570473D02*
X115059523Y-123510950D01*
X115059523Y-123510950D02*
X114940476Y-123391902D01*
X114940476Y-123391902D02*
X114880952Y-123153807D01*
X114880952Y-123153807D02*
X114880952Y-122737140D01*
X114880952Y-122737140D02*
X114940476Y-122499045D01*
X114940476Y-122499045D02*
X115059523Y-122379997D01*
X115059523Y-122379997D02*
X115178571Y-122320473D01*
X116785714Y-122737140D02*
X116785714Y-123570473D01*
X116250000Y-122737140D02*
X116250000Y-123391902D01*
X116250000Y-123391902D02*
X116309523Y-123510950D01*
X116309523Y-123510950D02*
X116428571Y-123570473D01*
X116428571Y-123570473D02*
X116607142Y-123570473D01*
X116607142Y-123570473D02*
X116726190Y-123510950D01*
X116726190Y-123510950D02*
X116785714Y-123451426D01*
X117202380Y-122737140D02*
X117678571Y-122737140D01*
X117380952Y-122320473D02*
X117380952Y-123391902D01*
X117380952Y-123391902D02*
X117440475Y-123510950D01*
X117440475Y-123510950D02*
X117559523Y-123570473D01*
X117559523Y-123570473D02*
X117678571Y-123570473D01*
X118333333Y-94954819D02*
X118000000Y-94478628D01*
X117761905Y-94954819D02*
X117761905Y-93954819D01*
X117761905Y-93954819D02*
X118142857Y-93954819D01*
X118142857Y-93954819D02*
X118238095Y-94002438D01*
X118238095Y-94002438D02*
X118285714Y-94050057D01*
X118285714Y-94050057D02*
X118333333Y-94145295D01*
X118333333Y-94145295D02*
X118333333Y-94288152D01*
X118333333Y-94288152D02*
X118285714Y-94383390D01*
X118285714Y-94383390D02*
X118238095Y-94431009D01*
X118238095Y-94431009D02*
X118142857Y-94478628D01*
X118142857Y-94478628D02*
X117761905Y-94478628D01*
X118809524Y-94954819D02*
X119000000Y-94954819D01*
X119000000Y-94954819D02*
X119095238Y-94907200D01*
X119095238Y-94907200D02*
X119142857Y-94859580D01*
X119142857Y-94859580D02*
X119238095Y-94716723D01*
X119238095Y-94716723D02*
X119285714Y-94526247D01*
X119285714Y-94526247D02*
X119285714Y-94145295D01*
X119285714Y-94145295D02*
X119238095Y-94050057D01*
X119238095Y-94050057D02*
X119190476Y-94002438D01*
X119190476Y-94002438D02*
X119095238Y-93954819D01*
X119095238Y-93954819D02*
X118904762Y-93954819D01*
X118904762Y-93954819D02*
X118809524Y-94002438D01*
X118809524Y-94002438D02*
X118761905Y-94050057D01*
X118761905Y-94050057D02*
X118714286Y-94145295D01*
X118714286Y-94145295D02*
X118714286Y-94383390D01*
X118714286Y-94383390D02*
X118761905Y-94478628D01*
X118761905Y-94478628D02*
X118809524Y-94526247D01*
X118809524Y-94526247D02*
X118904762Y-94573866D01*
X118904762Y-94573866D02*
X119095238Y-94573866D01*
X119095238Y-94573866D02*
X119190476Y-94526247D01*
X119190476Y-94526247D02*
X119238095Y-94478628D01*
X119238095Y-94478628D02*
X119285714Y-94383390D01*
X124041666Y-95570473D02*
X123327381Y-95570473D01*
X123684524Y-95570473D02*
X123684524Y-94320473D01*
X123684524Y-94320473D02*
X123565476Y-94499045D01*
X123565476Y-94499045D02*
X123446428Y-94618092D01*
X123446428Y-94618092D02*
X123327381Y-94677616D01*
X124815476Y-94320473D02*
X124934523Y-94320473D01*
X124934523Y-94320473D02*
X125053571Y-94379997D01*
X125053571Y-94379997D02*
X125113095Y-94439521D01*
X125113095Y-94439521D02*
X125172619Y-94558569D01*
X125172619Y-94558569D02*
X125232142Y-94796664D01*
X125232142Y-94796664D02*
X125232142Y-95094283D01*
X125232142Y-95094283D02*
X125172619Y-95332378D01*
X125172619Y-95332378D02*
X125113095Y-95451426D01*
X125113095Y-95451426D02*
X125053571Y-95510950D01*
X125053571Y-95510950D02*
X124934523Y-95570473D01*
X124934523Y-95570473D02*
X124815476Y-95570473D01*
X124815476Y-95570473D02*
X124696428Y-95510950D01*
X124696428Y-95510950D02*
X124636904Y-95451426D01*
X124636904Y-95451426D02*
X124577381Y-95332378D01*
X124577381Y-95332378D02*
X124517857Y-95094283D01*
X124517857Y-95094283D02*
X124517857Y-94796664D01*
X124517857Y-94796664D02*
X124577381Y-94558569D01*
X124577381Y-94558569D02*
X124636904Y-94439521D01*
X124636904Y-94439521D02*
X124696428Y-94379997D01*
X124696428Y-94379997D02*
X124815476Y-94320473D01*
X125767857Y-94737140D02*
X125767857Y-95987140D01*
X125767857Y-94796664D02*
X125886904Y-94737140D01*
X125886904Y-94737140D02*
X126124999Y-94737140D01*
X126124999Y-94737140D02*
X126244047Y-94796664D01*
X126244047Y-94796664D02*
X126303571Y-94856188D01*
X126303571Y-94856188D02*
X126363095Y-94975235D01*
X126363095Y-94975235D02*
X126363095Y-95332378D01*
X126363095Y-95332378D02*
X126303571Y-95451426D01*
X126303571Y-95451426D02*
X126244047Y-95510950D01*
X126244047Y-95510950D02*
X126124999Y-95570473D01*
X126124999Y-95570473D02*
X125886904Y-95570473D01*
X125886904Y-95570473D02*
X125767857Y-95510950D01*
X126898809Y-95570473D02*
X126898809Y-94320473D01*
X126898809Y-94915711D02*
X127613094Y-94915711D01*
X127613094Y-95570473D02*
X127613094Y-94320473D01*
X112333333Y-65954819D02*
X112000000Y-65478628D01*
X111761905Y-65954819D02*
X111761905Y-64954819D01*
X111761905Y-64954819D02*
X112142857Y-64954819D01*
X112142857Y-64954819D02*
X112238095Y-65002438D01*
X112238095Y-65002438D02*
X112285714Y-65050057D01*
X112285714Y-65050057D02*
X112333333Y-65145295D01*
X112333333Y-65145295D02*
X112333333Y-65288152D01*
X112333333Y-65288152D02*
X112285714Y-65383390D01*
X112285714Y-65383390D02*
X112238095Y-65431009D01*
X112238095Y-65431009D02*
X112142857Y-65478628D01*
X112142857Y-65478628D02*
X111761905Y-65478628D01*
X112666667Y-64954819D02*
X113285714Y-64954819D01*
X113285714Y-64954819D02*
X112952381Y-65335771D01*
X112952381Y-65335771D02*
X113095238Y-65335771D01*
X113095238Y-65335771D02*
X113190476Y-65383390D01*
X113190476Y-65383390D02*
X113238095Y-65431009D01*
X113238095Y-65431009D02*
X113285714Y-65526247D01*
X113285714Y-65526247D02*
X113285714Y-65764342D01*
X113285714Y-65764342D02*
X113238095Y-65859580D01*
X113238095Y-65859580D02*
X113190476Y-65907200D01*
X113190476Y-65907200D02*
X113095238Y-65954819D01*
X113095238Y-65954819D02*
X112809524Y-65954819D01*
X112809524Y-65954819D02*
X112714286Y-65907200D01*
X112714286Y-65907200D02*
X112666667Y-65859580D01*
X121238095Y-75454819D02*
X121809523Y-75454819D01*
X121523809Y-76454819D02*
X121523809Y-75454819D01*
X122142857Y-76454819D02*
X122142857Y-75454819D01*
X122142857Y-75454819D02*
X122523809Y-75454819D01*
X122523809Y-75454819D02*
X122619047Y-75502438D01*
X122619047Y-75502438D02*
X122666666Y-75550057D01*
X122666666Y-75550057D02*
X122714285Y-75645295D01*
X122714285Y-75645295D02*
X122714285Y-75788152D01*
X122714285Y-75788152D02*
X122666666Y-75883390D01*
X122666666Y-75883390D02*
X122619047Y-75931009D01*
X122619047Y-75931009D02*
X122523809Y-75978628D01*
X122523809Y-75978628D02*
X122142857Y-75978628D01*
X123047619Y-75454819D02*
X123666666Y-75454819D01*
X123666666Y-75454819D02*
X123333333Y-75835771D01*
X123333333Y-75835771D02*
X123476190Y-75835771D01*
X123476190Y-75835771D02*
X123571428Y-75883390D01*
X123571428Y-75883390D02*
X123619047Y-75931009D01*
X123619047Y-75931009D02*
X123666666Y-76026247D01*
X123666666Y-76026247D02*
X123666666Y-76264342D01*
X123666666Y-76264342D02*
X123619047Y-76359580D01*
X123619047Y-76359580D02*
X123571428Y-76407200D01*
X123571428Y-76407200D02*
X123476190Y-76454819D01*
X123476190Y-76454819D02*
X123190476Y-76454819D01*
X123190476Y-76454819D02*
X123095238Y-76407200D01*
X123095238Y-76407200D02*
X123047619Y-76359580D01*
X120000000Y-78594283D02*
X120952381Y-78594283D01*
X121488095Y-77939521D02*
X121547619Y-77879997D01*
X121547619Y-77879997D02*
X121666666Y-77820473D01*
X121666666Y-77820473D02*
X121964285Y-77820473D01*
X121964285Y-77820473D02*
X122083333Y-77879997D01*
X122083333Y-77879997D02*
X122142857Y-77939521D01*
X122142857Y-77939521D02*
X122202380Y-78058569D01*
X122202380Y-78058569D02*
X122202380Y-78177616D01*
X122202380Y-78177616D02*
X122142857Y-78356188D01*
X122142857Y-78356188D02*
X121428571Y-79070473D01*
X121428571Y-79070473D02*
X122202380Y-79070473D01*
X122738095Y-78951426D02*
X122797618Y-79010950D01*
X122797618Y-79010950D02*
X122738095Y-79070473D01*
X122738095Y-79070473D02*
X122678571Y-79010950D01*
X122678571Y-79010950D02*
X122738095Y-78951426D01*
X122738095Y-78951426D02*
X122738095Y-79070473D01*
X123928571Y-77820473D02*
X123333333Y-77820473D01*
X123333333Y-77820473D02*
X123273809Y-78415711D01*
X123273809Y-78415711D02*
X123333333Y-78356188D01*
X123333333Y-78356188D02*
X123452380Y-78296664D01*
X123452380Y-78296664D02*
X123749999Y-78296664D01*
X123749999Y-78296664D02*
X123869047Y-78356188D01*
X123869047Y-78356188D02*
X123928571Y-78415711D01*
X123928571Y-78415711D02*
X123988094Y-78534759D01*
X123988094Y-78534759D02*
X123988094Y-78832378D01*
X123988094Y-78832378D02*
X123928571Y-78951426D01*
X123928571Y-78951426D02*
X123869047Y-79010950D01*
X123869047Y-79010950D02*
X123749999Y-79070473D01*
X123749999Y-79070473D02*
X123452380Y-79070473D01*
X123452380Y-79070473D02*
X123333333Y-79010950D01*
X123333333Y-79010950D02*
X123273809Y-78951426D01*
X124345237Y-77820473D02*
X124761904Y-79070473D01*
X124761904Y-79070473D02*
X125178570Y-77820473D01*
X109238095Y-72954819D02*
X109238095Y-73764342D01*
X109238095Y-73764342D02*
X109285714Y-73859580D01*
X109285714Y-73859580D02*
X109333333Y-73907200D01*
X109333333Y-73907200D02*
X109428571Y-73954819D01*
X109428571Y-73954819D02*
X109619047Y-73954819D01*
X109619047Y-73954819D02*
X109714285Y-73907200D01*
X109714285Y-73907200D02*
X109761904Y-73859580D01*
X109761904Y-73859580D02*
X109809523Y-73764342D01*
X109809523Y-73764342D02*
X109809523Y-72954819D01*
X110238095Y-73050057D02*
X110285714Y-73002438D01*
X110285714Y-73002438D02*
X110380952Y-72954819D01*
X110380952Y-72954819D02*
X110619047Y-72954819D01*
X110619047Y-72954819D02*
X110714285Y-73002438D01*
X110714285Y-73002438D02*
X110761904Y-73050057D01*
X110761904Y-73050057D02*
X110809523Y-73145295D01*
X110809523Y-73145295D02*
X110809523Y-73240533D01*
X110809523Y-73240533D02*
X110761904Y-73383390D01*
X110761904Y-73383390D02*
X110190476Y-73954819D01*
X110190476Y-73954819D02*
X110809523Y-73954819D01*
X109333333Y-115274819D02*
X109000000Y-114798628D01*
X108761905Y-115274819D02*
X108761905Y-114274819D01*
X108761905Y-114274819D02*
X109142857Y-114274819D01*
X109142857Y-114274819D02*
X109238095Y-114322438D01*
X109238095Y-114322438D02*
X109285714Y-114370057D01*
X109285714Y-114370057D02*
X109333333Y-114465295D01*
X109333333Y-114465295D02*
X109333333Y-114608152D01*
X109333333Y-114608152D02*
X109285714Y-114703390D01*
X109285714Y-114703390D02*
X109238095Y-114751009D01*
X109238095Y-114751009D02*
X109142857Y-114798628D01*
X109142857Y-114798628D02*
X108761905Y-114798628D01*
X109714286Y-114370057D02*
X109761905Y-114322438D01*
X109761905Y-114322438D02*
X109857143Y-114274819D01*
X109857143Y-114274819D02*
X110095238Y-114274819D01*
X110095238Y-114274819D02*
X110190476Y-114322438D01*
X110190476Y-114322438D02*
X110238095Y-114370057D01*
X110238095Y-114370057D02*
X110285714Y-114465295D01*
X110285714Y-114465295D02*
X110285714Y-114560533D01*
X110285714Y-114560533D02*
X110238095Y-114703390D01*
X110238095Y-114703390D02*
X109666667Y-115274819D01*
X109666667Y-115274819D02*
X110285714Y-115274819D01*
X113833333Y-114859580D02*
X113785714Y-114907200D01*
X113785714Y-114907200D02*
X113642857Y-114954819D01*
X113642857Y-114954819D02*
X113547619Y-114954819D01*
X113547619Y-114954819D02*
X113404762Y-114907200D01*
X113404762Y-114907200D02*
X113309524Y-114811961D01*
X113309524Y-114811961D02*
X113261905Y-114716723D01*
X113261905Y-114716723D02*
X113214286Y-114526247D01*
X113214286Y-114526247D02*
X113214286Y-114383390D01*
X113214286Y-114383390D02*
X113261905Y-114192914D01*
X113261905Y-114192914D02*
X113309524Y-114097676D01*
X113309524Y-114097676D02*
X113404762Y-114002438D01*
X113404762Y-114002438D02*
X113547619Y-113954819D01*
X113547619Y-113954819D02*
X113642857Y-113954819D01*
X113642857Y-113954819D02*
X113785714Y-114002438D01*
X113785714Y-114002438D02*
X113833333Y-114050057D01*
X114214286Y-114050057D02*
X114261905Y-114002438D01*
X114261905Y-114002438D02*
X114357143Y-113954819D01*
X114357143Y-113954819D02*
X114595238Y-113954819D01*
X114595238Y-113954819D02*
X114690476Y-114002438D01*
X114690476Y-114002438D02*
X114738095Y-114050057D01*
X114738095Y-114050057D02*
X114785714Y-114145295D01*
X114785714Y-114145295D02*
X114785714Y-114240533D01*
X114785714Y-114240533D02*
X114738095Y-114383390D01*
X114738095Y-114383390D02*
X114166667Y-114954819D01*
X114166667Y-114954819D02*
X114785714Y-114954819D01*
X125666666Y-135954819D02*
X125666666Y-136669104D01*
X125666666Y-136669104D02*
X125619047Y-136811961D01*
X125619047Y-136811961D02*
X125523809Y-136907200D01*
X125523809Y-136907200D02*
X125380952Y-136954819D01*
X125380952Y-136954819D02*
X125285714Y-136954819D01*
X126047619Y-135954819D02*
X126666666Y-135954819D01*
X126666666Y-135954819D02*
X126333333Y-136335771D01*
X126333333Y-136335771D02*
X126476190Y-136335771D01*
X126476190Y-136335771D02*
X126571428Y-136383390D01*
X126571428Y-136383390D02*
X126619047Y-136431009D01*
X126619047Y-136431009D02*
X126666666Y-136526247D01*
X126666666Y-136526247D02*
X126666666Y-136764342D01*
X126666666Y-136764342D02*
X126619047Y-136859580D01*
X126619047Y-136859580D02*
X126571428Y-136907200D01*
X126571428Y-136907200D02*
X126476190Y-136954819D01*
X126476190Y-136954819D02*
X126190476Y-136954819D01*
X126190476Y-136954819D02*
X126095238Y-136907200D01*
X126095238Y-136907200D02*
X126047619Y-136859580D01*
X133244819Y-115743094D02*
X132244819Y-115743094D01*
X132244819Y-115743094D02*
X132244819Y-115504999D01*
X132244819Y-115504999D02*
X132292438Y-115362142D01*
X132292438Y-115362142D02*
X132387676Y-115266904D01*
X132387676Y-115266904D02*
X132482914Y-115219285D01*
X132482914Y-115219285D02*
X132673390Y-115171666D01*
X132673390Y-115171666D02*
X132816247Y-115171666D01*
X132816247Y-115171666D02*
X133006723Y-115219285D01*
X133006723Y-115219285D02*
X133101961Y-115266904D01*
X133101961Y-115266904D02*
X133197200Y-115362142D01*
X133197200Y-115362142D02*
X133244819Y-115504999D01*
X133244819Y-115504999D02*
X133244819Y-115743094D01*
X133244819Y-114219285D02*
X133244819Y-114790713D01*
X133244819Y-114504999D02*
X132244819Y-114504999D01*
X132244819Y-114504999D02*
X132387676Y-114600237D01*
X132387676Y-114600237D02*
X132482914Y-114695475D01*
X132482914Y-114695475D02*
X132530533Y-114790713D01*
X124666667Y-105907200D02*
X124809524Y-105954819D01*
X124809524Y-105954819D02*
X125047619Y-105954819D01*
X125047619Y-105954819D02*
X125142857Y-105907200D01*
X125142857Y-105907200D02*
X125190476Y-105859580D01*
X125190476Y-105859580D02*
X125238095Y-105764342D01*
X125238095Y-105764342D02*
X125238095Y-105669104D01*
X125238095Y-105669104D02*
X125190476Y-105573866D01*
X125190476Y-105573866D02*
X125142857Y-105526247D01*
X125142857Y-105526247D02*
X125047619Y-105478628D01*
X125047619Y-105478628D02*
X124857143Y-105431009D01*
X124857143Y-105431009D02*
X124761905Y-105383390D01*
X124761905Y-105383390D02*
X124714286Y-105335771D01*
X124714286Y-105335771D02*
X124666667Y-105240533D01*
X124666667Y-105240533D02*
X124666667Y-105145295D01*
X124666667Y-105145295D02*
X124714286Y-105050057D01*
X124714286Y-105050057D02*
X124761905Y-105002438D01*
X124761905Y-105002438D02*
X124857143Y-104954819D01*
X124857143Y-104954819D02*
X125095238Y-104954819D01*
X125095238Y-104954819D02*
X125238095Y-105002438D01*
X125571429Y-104954819D02*
X125809524Y-105954819D01*
X125809524Y-105954819D02*
X126000000Y-105240533D01*
X126000000Y-105240533D02*
X126190476Y-105954819D01*
X126190476Y-105954819D02*
X126428572Y-104954819D01*
X126761905Y-105050057D02*
X126809524Y-105002438D01*
X126809524Y-105002438D02*
X126904762Y-104954819D01*
X126904762Y-104954819D02*
X127142857Y-104954819D01*
X127142857Y-104954819D02*
X127238095Y-105002438D01*
X127238095Y-105002438D02*
X127285714Y-105050057D01*
X127285714Y-105050057D02*
X127333333Y-105145295D01*
X127333333Y-105145295D02*
X127333333Y-105240533D01*
X127333333Y-105240533D02*
X127285714Y-105383390D01*
X127285714Y-105383390D02*
X126714286Y-105954819D01*
X126714286Y-105954819D02*
X127333333Y-105954819D01*
X113738095Y-124454819D02*
X114309523Y-124454819D01*
X114023809Y-125454819D02*
X114023809Y-124454819D01*
X114642857Y-125454819D02*
X114642857Y-124454819D01*
X114642857Y-124454819D02*
X115023809Y-124454819D01*
X115023809Y-124454819D02*
X115119047Y-124502438D01*
X115119047Y-124502438D02*
X115166666Y-124550057D01*
X115166666Y-124550057D02*
X115214285Y-124645295D01*
X115214285Y-124645295D02*
X115214285Y-124788152D01*
X115214285Y-124788152D02*
X115166666Y-124883390D01*
X115166666Y-124883390D02*
X115119047Y-124931009D01*
X115119047Y-124931009D02*
X115023809Y-124978628D01*
X115023809Y-124978628D02*
X114642857Y-124978628D01*
X115833333Y-124454819D02*
X115928571Y-124454819D01*
X115928571Y-124454819D02*
X116023809Y-124502438D01*
X116023809Y-124502438D02*
X116071428Y-124550057D01*
X116071428Y-124550057D02*
X116119047Y-124645295D01*
X116119047Y-124645295D02*
X116166666Y-124835771D01*
X116166666Y-124835771D02*
X116166666Y-125073866D01*
X116166666Y-125073866D02*
X116119047Y-125264342D01*
X116119047Y-125264342D02*
X116071428Y-125359580D01*
X116071428Y-125359580D02*
X116023809Y-125407200D01*
X116023809Y-125407200D02*
X115928571Y-125454819D01*
X115928571Y-125454819D02*
X115833333Y-125454819D01*
X115833333Y-125454819D02*
X115738095Y-125407200D01*
X115738095Y-125407200D02*
X115690476Y-125359580D01*
X115690476Y-125359580D02*
X115642857Y-125264342D01*
X115642857Y-125264342D02*
X115595238Y-125073866D01*
X115595238Y-125073866D02*
X115595238Y-124835771D01*
X115595238Y-124835771D02*
X115642857Y-124645295D01*
X115642857Y-124645295D02*
X115690476Y-124550057D01*
X115690476Y-124550057D02*
X115738095Y-124502438D01*
X115738095Y-124502438D02*
X115833333Y-124454819D01*
X114196428Y-129879997D02*
X114077381Y-129820473D01*
X114077381Y-129820473D02*
X113898809Y-129820473D01*
X113898809Y-129820473D02*
X113720238Y-129879997D01*
X113720238Y-129879997D02*
X113601190Y-129999045D01*
X113601190Y-129999045D02*
X113541667Y-130118092D01*
X113541667Y-130118092D02*
X113482143Y-130356188D01*
X113482143Y-130356188D02*
X113482143Y-130534759D01*
X113482143Y-130534759D02*
X113541667Y-130772854D01*
X113541667Y-130772854D02*
X113601190Y-130891902D01*
X113601190Y-130891902D02*
X113720238Y-131010950D01*
X113720238Y-131010950D02*
X113898809Y-131070473D01*
X113898809Y-131070473D02*
X114017857Y-131070473D01*
X114017857Y-131070473D02*
X114196428Y-131010950D01*
X114196428Y-131010950D02*
X114255952Y-130951426D01*
X114255952Y-130951426D02*
X114255952Y-130534759D01*
X114255952Y-130534759D02*
X114017857Y-130534759D01*
X114791667Y-130237140D02*
X114791667Y-131070473D01*
X114791667Y-130356188D02*
X114851190Y-130296664D01*
X114851190Y-130296664D02*
X114970238Y-130237140D01*
X114970238Y-130237140D02*
X115148809Y-130237140D01*
X115148809Y-130237140D02*
X115267857Y-130296664D01*
X115267857Y-130296664D02*
X115327381Y-130415711D01*
X115327381Y-130415711D02*
X115327381Y-131070473D01*
X116458333Y-131070473D02*
X116458333Y-129820473D01*
X116458333Y-131010950D02*
X116339285Y-131070473D01*
X116339285Y-131070473D02*
X116101190Y-131070473D01*
X116101190Y-131070473D02*
X115982142Y-131010950D01*
X115982142Y-131010950D02*
X115922619Y-130951426D01*
X115922619Y-130951426D02*
X115863095Y-130832378D01*
X115863095Y-130832378D02*
X115863095Y-130475235D01*
X115863095Y-130475235D02*
X115922619Y-130356188D01*
X115922619Y-130356188D02*
X115982142Y-130296664D01*
X115982142Y-130296664D02*
X116101190Y-130237140D01*
X116101190Y-130237140D02*
X116339285Y-130237140D01*
X116339285Y-130237140D02*
X116458333Y-130296664D01*
X103985984Y-115359580D02*
X103938365Y-115407200D01*
X103938365Y-115407200D02*
X103795508Y-115454819D01*
X103795508Y-115454819D02*
X103700270Y-115454819D01*
X103700270Y-115454819D02*
X103557413Y-115407200D01*
X103557413Y-115407200D02*
X103462175Y-115311961D01*
X103462175Y-115311961D02*
X103414556Y-115216723D01*
X103414556Y-115216723D02*
X103366937Y-115026247D01*
X103366937Y-115026247D02*
X103366937Y-114883390D01*
X103366937Y-114883390D02*
X103414556Y-114692914D01*
X103414556Y-114692914D02*
X103462175Y-114597676D01*
X103462175Y-114597676D02*
X103557413Y-114502438D01*
X103557413Y-114502438D02*
X103700270Y-114454819D01*
X103700270Y-114454819D02*
X103795508Y-114454819D01*
X103795508Y-114454819D02*
X103938365Y-114502438D01*
X103938365Y-114502438D02*
X103985984Y-114550057D01*
X104938365Y-115454819D02*
X104366937Y-115454819D01*
X104652651Y-115454819D02*
X104652651Y-114454819D01*
X104652651Y-114454819D02*
X104557413Y-114597676D01*
X104557413Y-114597676D02*
X104462175Y-114692914D01*
X104462175Y-114692914D02*
X104366937Y-114740533D01*
X122357142Y-119954819D02*
X122023809Y-119478628D01*
X121785714Y-119954819D02*
X121785714Y-118954819D01*
X121785714Y-118954819D02*
X122166666Y-118954819D01*
X122166666Y-118954819D02*
X122261904Y-119002438D01*
X122261904Y-119002438D02*
X122309523Y-119050057D01*
X122309523Y-119050057D02*
X122357142Y-119145295D01*
X122357142Y-119145295D02*
X122357142Y-119288152D01*
X122357142Y-119288152D02*
X122309523Y-119383390D01*
X122309523Y-119383390D02*
X122261904Y-119431009D01*
X122261904Y-119431009D02*
X122166666Y-119478628D01*
X122166666Y-119478628D02*
X121785714Y-119478628D01*
X123309523Y-119954819D02*
X122738095Y-119954819D01*
X123023809Y-119954819D02*
X123023809Y-118954819D01*
X123023809Y-118954819D02*
X122928571Y-119097676D01*
X122928571Y-119097676D02*
X122833333Y-119192914D01*
X122833333Y-119192914D02*
X122738095Y-119240533D01*
X124214285Y-118954819D02*
X123738095Y-118954819D01*
X123738095Y-118954819D02*
X123690476Y-119431009D01*
X123690476Y-119431009D02*
X123738095Y-119383390D01*
X123738095Y-119383390D02*
X123833333Y-119335771D01*
X123833333Y-119335771D02*
X124071428Y-119335771D01*
X124071428Y-119335771D02*
X124166666Y-119383390D01*
X124166666Y-119383390D02*
X124214285Y-119431009D01*
X124214285Y-119431009D02*
X124261904Y-119526247D01*
X124261904Y-119526247D02*
X124261904Y-119764342D01*
X124261904Y-119764342D02*
X124214285Y-119859580D01*
X124214285Y-119859580D02*
X124166666Y-119907200D01*
X124166666Y-119907200D02*
X124071428Y-119954819D01*
X124071428Y-119954819D02*
X123833333Y-119954819D01*
X123833333Y-119954819D02*
X123738095Y-119907200D01*
X123738095Y-119907200D02*
X123690476Y-119859580D01*
X109333333Y-109134819D02*
X109000000Y-108658628D01*
X108761905Y-109134819D02*
X108761905Y-108134819D01*
X108761905Y-108134819D02*
X109142857Y-108134819D01*
X109142857Y-108134819D02*
X109238095Y-108182438D01*
X109238095Y-108182438D02*
X109285714Y-108230057D01*
X109285714Y-108230057D02*
X109333333Y-108325295D01*
X109333333Y-108325295D02*
X109333333Y-108468152D01*
X109333333Y-108468152D02*
X109285714Y-108563390D01*
X109285714Y-108563390D02*
X109238095Y-108611009D01*
X109238095Y-108611009D02*
X109142857Y-108658628D01*
X109142857Y-108658628D02*
X108761905Y-108658628D01*
X110285714Y-109134819D02*
X109714286Y-109134819D01*
X110000000Y-109134819D02*
X110000000Y-108134819D01*
X110000000Y-108134819D02*
X109904762Y-108277676D01*
X109904762Y-108277676D02*
X109809524Y-108372914D01*
X109809524Y-108372914D02*
X109714286Y-108420533D01*
X119666666Y-120954819D02*
X119666666Y-121669104D01*
X119666666Y-121669104D02*
X119619047Y-121811961D01*
X119619047Y-121811961D02*
X119523809Y-121907200D01*
X119523809Y-121907200D02*
X119380952Y-121954819D01*
X119380952Y-121954819D02*
X119285714Y-121954819D01*
X120571428Y-121288152D02*
X120571428Y-121954819D01*
X120333333Y-120907200D02*
X120095238Y-121621485D01*
X120095238Y-121621485D02*
X120714285Y-121621485D01*
X122357142Y-131954819D02*
X122023809Y-131478628D01*
X121785714Y-131954819D02*
X121785714Y-130954819D01*
X121785714Y-130954819D02*
X122166666Y-130954819D01*
X122166666Y-130954819D02*
X122261904Y-131002438D01*
X122261904Y-131002438D02*
X122309523Y-131050057D01*
X122309523Y-131050057D02*
X122357142Y-131145295D01*
X122357142Y-131145295D02*
X122357142Y-131288152D01*
X122357142Y-131288152D02*
X122309523Y-131383390D01*
X122309523Y-131383390D02*
X122261904Y-131431009D01*
X122261904Y-131431009D02*
X122166666Y-131478628D01*
X122166666Y-131478628D02*
X121785714Y-131478628D01*
X123309523Y-131954819D02*
X122738095Y-131954819D01*
X123023809Y-131954819D02*
X123023809Y-130954819D01*
X123023809Y-130954819D02*
X122928571Y-131097676D01*
X122928571Y-131097676D02*
X122833333Y-131192914D01*
X122833333Y-131192914D02*
X122738095Y-131240533D01*
X124166666Y-130954819D02*
X123976190Y-130954819D01*
X123976190Y-130954819D02*
X123880952Y-131002438D01*
X123880952Y-131002438D02*
X123833333Y-131050057D01*
X123833333Y-131050057D02*
X123738095Y-131192914D01*
X123738095Y-131192914D02*
X123690476Y-131383390D01*
X123690476Y-131383390D02*
X123690476Y-131764342D01*
X123690476Y-131764342D02*
X123738095Y-131859580D01*
X123738095Y-131859580D02*
X123785714Y-131907200D01*
X123785714Y-131907200D02*
X123880952Y-131954819D01*
X123880952Y-131954819D02*
X124071428Y-131954819D01*
X124071428Y-131954819D02*
X124166666Y-131907200D01*
X124166666Y-131907200D02*
X124214285Y-131859580D01*
X124214285Y-131859580D02*
X124261904Y-131764342D01*
X124261904Y-131764342D02*
X124261904Y-131526247D01*
X124261904Y-131526247D02*
X124214285Y-131431009D01*
X124214285Y-131431009D02*
X124166666Y-131383390D01*
X124166666Y-131383390D02*
X124071428Y-131335771D01*
X124071428Y-131335771D02*
X123880952Y-131335771D01*
X123880952Y-131335771D02*
X123785714Y-131383390D01*
X123785714Y-131383390D02*
X123738095Y-131431009D01*
X123738095Y-131431009D02*
X123690476Y-131526247D01*
X113738095Y-102674819D02*
X113738095Y-103484342D01*
X113738095Y-103484342D02*
X113785714Y-103579580D01*
X113785714Y-103579580D02*
X113833333Y-103627200D01*
X113833333Y-103627200D02*
X113928571Y-103674819D01*
X113928571Y-103674819D02*
X114119047Y-103674819D01*
X114119047Y-103674819D02*
X114214285Y-103627200D01*
X114214285Y-103627200D02*
X114261904Y-103579580D01*
X114261904Y-103579580D02*
X114309523Y-103484342D01*
X114309523Y-103484342D02*
X114309523Y-102674819D01*
X115309523Y-103674819D02*
X114738095Y-103674819D01*
X115023809Y-103674819D02*
X115023809Y-102674819D01*
X115023809Y-102674819D02*
X114928571Y-102817676D01*
X114928571Y-102817676D02*
X114833333Y-102912914D01*
X114833333Y-102912914D02*
X114738095Y-102960533D01*
D11*
%TO.C,U3*%
X119000000Y-67440000D02*
X115550000Y-67440000D01*
X119000000Y-67440000D02*
X120950000Y-67440000D01*
X119000000Y-72560000D02*
X117050000Y-72560000D01*
X119000000Y-72560000D02*
X120950000Y-72560000D01*
%TO.C,R5*%
X132410000Y-111772936D02*
X132410000Y-113227064D01*
X130590000Y-111772936D02*
X130590000Y-113227064D01*
%TO.C,R14*%
X160120000Y-68880000D02*
X160120000Y-75120000D01*
X147120000Y-75120000D02*
X160120000Y-75120000D01*
X147120000Y-68880000D02*
X160120000Y-68880000D01*
X147120000Y-68380000D02*
X147120000Y-75620000D01*
X140120000Y-75620000D02*
X147120000Y-75620000D01*
X140120000Y-68380000D02*
X147120000Y-68380000D01*
X140120000Y-67130000D02*
X140120000Y-76870000D01*
X132825000Y-76870000D02*
X140120000Y-76870000D01*
X132825000Y-67130000D02*
X140120000Y-67130000D01*
X132825000Y-67130000D02*
X132825000Y-76870000D01*
%TO.C,R8*%
X105625000Y-87345000D02*
X105625000Y-93685000D01*
X105625000Y-87345000D02*
X115395000Y-87345000D01*
X105625000Y-93685000D02*
X115395000Y-93685000D01*
X115395000Y-87345000D02*
X115395000Y-93685000D01*
%TO.C,TP2*%
X111750000Y-76500000D02*
G75*
G03*
X111750000Y-76500000I-1750000J0D01*
G01*
%TO.C,R12*%
X128272936Y-73590000D02*
X129727064Y-73590000D01*
X128272936Y-75410000D02*
X129727064Y-75410000D01*
%TO.C,R6*%
X108370000Y-83272936D02*
X108370000Y-84727064D01*
X106550000Y-83272936D02*
X106550000Y-84727064D01*
%TO.C,C5*%
X129711252Y-72910000D02*
X128288748Y-72910000D01*
X129711252Y-71090000D02*
X128288748Y-71090000D01*
%TO.C,C3*%
X109550000Y-84711252D02*
X109550000Y-83288748D01*
X111370000Y-84711252D02*
X111370000Y-83288748D01*
%TO.C,R4*%
X120727064Y-66410000D02*
X119272936Y-66410000D01*
X120727064Y-64590000D02*
X119272936Y-64590000D01*
%TO.C,J2*%
X107600781Y-135000000D02*
G75*
G03*
X107600781Y-135000000I-1600781J0D01*
G01*
%TO.C,D2*%
X122510000Y-136650000D02*
X122510000Y-133350000D01*
X122510000Y-136650000D02*
X117000000Y-136650000D01*
X122510000Y-133350000D02*
X117000000Y-133350000D01*
%TO.C,R7*%
X119870000Y-83272936D02*
X119870000Y-84727064D01*
X118050000Y-83272936D02*
X118050000Y-84727064D01*
%TO.C,J1*%
X112600781Y-135000000D02*
G75*
G03*
X112600781Y-135000000I-1600781J0D01*
G01*
%TO.C,R10*%
X112550000Y-84727064D02*
X112550000Y-83272936D01*
X114370000Y-84727064D02*
X114370000Y-83272936D01*
%TO.C,C4*%
X121050000Y-84711252D02*
X121050000Y-83288748D01*
X122870000Y-84711252D02*
X122870000Y-83288748D01*
%TO.C,R11*%
X124050000Y-84727064D02*
X124050000Y-83272936D01*
X125870000Y-84727064D02*
X125870000Y-83272936D01*
%TO.C,R13*%
X129727064Y-70410000D02*
X128272936Y-70410000D01*
X129727064Y-68590000D02*
X128272936Y-68590000D01*
%TO.C,TP1*%
X116750000Y-120000000D02*
G75*
G03*
X116750000Y-120000000I-1750000J0D01*
G01*
%TO.C,R9*%
X117125000Y-87220000D02*
X117125000Y-93560000D01*
X117125000Y-87220000D02*
X126895000Y-87220000D01*
X117125000Y-93560000D02*
X126895000Y-93560000D01*
X126895000Y-87220000D02*
X126895000Y-93560000D01*
%TO.C,R3*%
X108272936Y-64590000D02*
X109727064Y-64590000D01*
X108272936Y-66410000D02*
X109727064Y-66410000D01*
%TO.C,TP3*%
X120750000Y-76500000D02*
G75*
G03*
X120750000Y-76500000I-1750000J0D01*
G01*
%TO.C,U2*%
X110000000Y-67440000D02*
X106550000Y-67440000D01*
X110000000Y-67440000D02*
X111950000Y-67440000D01*
X110000000Y-72560000D02*
X108050000Y-72560000D01*
X110000000Y-72560000D02*
X111950000Y-72560000D01*
%TO.C,R2*%
X110227064Y-113910000D02*
X108772936Y-113910000D01*
X110227064Y-112090000D02*
X108772936Y-112090000D01*
%TO.C,C2*%
X116788748Y-113590000D02*
X118211252Y-113590000D01*
X116788748Y-115410000D02*
X118211252Y-115410000D01*
%TO.C,J3*%
X140150000Y-120500000D02*
X140150000Y-135500000D01*
X125150000Y-120500000D02*
X140150000Y-120500000D01*
X139950000Y-128000000D02*
X138950000Y-127000000D01*
X139950000Y-128000000D02*
X138950000Y-129000000D01*
X140150000Y-135500000D02*
X125150000Y-135500000D01*
X125150000Y-135500000D02*
X125150000Y-120500000D01*
%TO.C,D1*%
X138500000Y-116565000D02*
X142360000Y-116565000D01*
X138500000Y-116565000D02*
X138500000Y-113445000D01*
X135830000Y-116275000D02*
X135830000Y-116275000D01*
X135830000Y-116275000D02*
X138500000Y-116275000D01*
X138500000Y-116275000D02*
X135830000Y-116275000D01*
X138500000Y-116275000D02*
X138500000Y-116275000D01*
X135830000Y-113735000D02*
X135830000Y-113735000D01*
X135830000Y-113735000D02*
X138500000Y-113735000D01*
X138500000Y-113735000D02*
X135830000Y-113735000D01*
X138500000Y-113735000D02*
X138500000Y-113735000D01*
X138500000Y-113445000D02*
X142360000Y-113445000D01*
X138500000Y-113445000D02*
X138500000Y-113045000D01*
X139620000Y-113445000D02*
X138500000Y-113445000D01*
X138500000Y-113045000D02*
X139620000Y-113045000D01*
X139620000Y-113045000D02*
X139620000Y-113445000D01*
X142360000Y-116565000D02*
G75*
G03*
X142360000Y-113445000I0J1560000D01*
G01*
D12*
%TO.C,SW2*%
X128000000Y-94000000D02*
X128000000Y-106000000D01*
X128000000Y-106000000D02*
X140000000Y-106000000D01*
X140000000Y-94000000D02*
X128000000Y-94000000D01*
X140000000Y-96500000D02*
X146000000Y-96500000D01*
X146000000Y-96500000D02*
X146000000Y-103500000D01*
X146000000Y-103500000D02*
X140000000Y-103500000D01*
X140000000Y-103500000D02*
X140000000Y-96500000D01*
X145974600Y-97000000D02*
X146000000Y-97000000D01*
X146000000Y-97000000D02*
X146000000Y-103000000D01*
X146000000Y-103000000D02*
X145974600Y-103000000D01*
X145974600Y-103000000D02*
X145974600Y-97000000D01*
X160000000Y-97000000D02*
X146000000Y-97000000D01*
X146000000Y-97000000D02*
X146000000Y-103000000D01*
X146000000Y-103000000D02*
X160000000Y-103000000D01*
X160000000Y-103000000D02*
X160000000Y-97000000D01*
D11*
%TO.C,TP0*%
X116750000Y-127500000D02*
G75*
G03*
X116750000Y-127500000I-1750000J0D01*
G01*
%TO.C,C1*%
X110812349Y-122315000D02*
X110012349Y-122315000D01*
X110412349Y-122715000D02*
X110412349Y-121915000D01*
X106402651Y-124080000D02*
X106402651Y-115920000D01*
X106362651Y-124080000D02*
X106362651Y-115920000D01*
X106322651Y-124080000D02*
X106322651Y-115920000D01*
X106282651Y-124079000D02*
X106282651Y-115921000D01*
X106242651Y-124077000D02*
X106242651Y-115923000D01*
X106202651Y-124076000D02*
X106202651Y-115924000D01*
X106162651Y-124074000D02*
X106162651Y-121040000D01*
X106162651Y-118960000D02*
X106162651Y-115926000D01*
X106122651Y-124071000D02*
X106122651Y-121040000D01*
X106122651Y-118960000D02*
X106122651Y-115929000D01*
X106082651Y-124068000D02*
X106082651Y-121040000D01*
X106082651Y-118960000D02*
X106082651Y-115932000D01*
X106042651Y-124065000D02*
X106042651Y-121040000D01*
X106042651Y-118960000D02*
X106042651Y-115935000D01*
X106002651Y-124061000D02*
X106002651Y-121040000D01*
X106002651Y-118960000D02*
X106002651Y-115939000D01*
X105962651Y-124057000D02*
X105962651Y-121040000D01*
X105962651Y-118960000D02*
X105962651Y-115943000D01*
X105922651Y-124052000D02*
X105922651Y-121040000D01*
X105922651Y-118960000D02*
X105922651Y-115948000D01*
X105882651Y-124048000D02*
X105882651Y-121040000D01*
X105882651Y-118960000D02*
X105882651Y-115952000D01*
X105842651Y-124042000D02*
X105842651Y-121040000D01*
X105842651Y-118960000D02*
X105842651Y-115958000D01*
X105802651Y-124037000D02*
X105802651Y-121040000D01*
X105802651Y-118960000D02*
X105802651Y-115963000D01*
X105762651Y-124030000D02*
X105762651Y-121040000D01*
X105762651Y-118960000D02*
X105762651Y-115970000D01*
X105722651Y-124024000D02*
X105722651Y-121040000D01*
X105722651Y-118960000D02*
X105722651Y-115976000D01*
X105681651Y-124017000D02*
X105681651Y-121040000D01*
X105681651Y-118960000D02*
X105681651Y-115983000D01*
X105641651Y-124010000D02*
X105641651Y-121040000D01*
X105641651Y-118960000D02*
X105641651Y-115990000D01*
X105601651Y-124002000D02*
X105601651Y-121040000D01*
X105601651Y-118960000D02*
X105601651Y-115998000D01*
X105561651Y-123994000D02*
X105561651Y-121040000D01*
X105561651Y-118960000D02*
X105561651Y-116006000D01*
X105521651Y-123985000D02*
X105521651Y-121040000D01*
X105521651Y-118960000D02*
X105521651Y-116015000D01*
X105481651Y-123976000D02*
X105481651Y-121040000D01*
X105481651Y-118960000D02*
X105481651Y-116024000D01*
X105441651Y-123967000D02*
X105441651Y-121040000D01*
X105441651Y-118960000D02*
X105441651Y-116033000D01*
X105401651Y-123957000D02*
X105401651Y-121040000D01*
X105401651Y-118960000D02*
X105401651Y-116043000D01*
X105361651Y-123947000D02*
X105361651Y-121040000D01*
X105361651Y-118960000D02*
X105361651Y-116053000D01*
X105321651Y-123936000D02*
X105321651Y-121040000D01*
X105321651Y-118960000D02*
X105321651Y-116064000D01*
X105281651Y-123925000D02*
X105281651Y-121040000D01*
X105281651Y-118960000D02*
X105281651Y-116075000D01*
X105241651Y-123914000D02*
X105241651Y-121040000D01*
X105241651Y-118960000D02*
X105241651Y-116086000D01*
X105201651Y-123902000D02*
X105201651Y-121040000D01*
X105201651Y-118960000D02*
X105201651Y-116098000D01*
X105161651Y-123889000D02*
X105161651Y-121040000D01*
X105161651Y-118960000D02*
X105161651Y-116111000D01*
X105121651Y-123877000D02*
X105121651Y-121040000D01*
X105121651Y-118960000D02*
X105121651Y-116123000D01*
X105081651Y-123863000D02*
X105081651Y-121040000D01*
X105081651Y-118960000D02*
X105081651Y-116137000D01*
X105041651Y-123850000D02*
X105041651Y-121040000D01*
X105041651Y-118960000D02*
X105041651Y-116150000D01*
X105001651Y-123835000D02*
X105001651Y-121040000D01*
X105001651Y-118960000D02*
X105001651Y-116165000D01*
X104961651Y-123821000D02*
X104961651Y-121040000D01*
X104961651Y-118960000D02*
X104961651Y-116179000D01*
X104921651Y-123805000D02*
X104921651Y-121040000D01*
X104921651Y-118960000D02*
X104921651Y-116195000D01*
X104881651Y-123790000D02*
X104881651Y-121040000D01*
X104881651Y-118960000D02*
X104881651Y-116210000D01*
X104841651Y-123774000D02*
X104841651Y-121040000D01*
X104841651Y-118960000D02*
X104841651Y-116226000D01*
X104801651Y-123757000D02*
X104801651Y-121040000D01*
X104801651Y-118960000D02*
X104801651Y-116243000D01*
X104761651Y-123740000D02*
X104761651Y-121040000D01*
X104761651Y-118960000D02*
X104761651Y-116260000D01*
X104721651Y-123722000D02*
X104721651Y-121040000D01*
X104721651Y-118960000D02*
X104721651Y-116278000D01*
X104681651Y-123704000D02*
X104681651Y-121040000D01*
X104681651Y-118960000D02*
X104681651Y-116296000D01*
X104641651Y-123686000D02*
X104641651Y-121040000D01*
X104641651Y-118960000D02*
X104641651Y-116314000D01*
X104601651Y-123666000D02*
X104601651Y-121040000D01*
X104601651Y-118960000D02*
X104601651Y-116334000D01*
X104561651Y-123647000D02*
X104561651Y-121040000D01*
X104561651Y-118960000D02*
X104561651Y-116353000D01*
X104521651Y-123627000D02*
X104521651Y-121040000D01*
X104521651Y-118960000D02*
X104521651Y-116373000D01*
X104481651Y-123606000D02*
X104481651Y-121040000D01*
X104481651Y-118960000D02*
X104481651Y-116394000D01*
X104441651Y-123584000D02*
X104441651Y-121040000D01*
X104441651Y-118960000D02*
X104441651Y-116416000D01*
X104401651Y-123562000D02*
X104401651Y-121040000D01*
X104401651Y-118960000D02*
X104401651Y-116438000D01*
X104361651Y-123540000D02*
X104361651Y-121040000D01*
X104361651Y-118960000D02*
X104361651Y-116460000D01*
X104321651Y-123517000D02*
X104321651Y-121040000D01*
X104321651Y-118960000D02*
X104321651Y-116483000D01*
X104281651Y-123493000D02*
X104281651Y-121040000D01*
X104281651Y-118960000D02*
X104281651Y-116507000D01*
X104241651Y-123469000D02*
X104241651Y-121040000D01*
X104241651Y-118960000D02*
X104241651Y-116531000D01*
X104201651Y-123444000D02*
X104201651Y-121040000D01*
X104201651Y-118960000D02*
X104201651Y-116556000D01*
X104161651Y-123418000D02*
X104161651Y-121040000D01*
X104161651Y-118960000D02*
X104161651Y-116582000D01*
X104121651Y-123392000D02*
X104121651Y-121040000D01*
X104121651Y-118960000D02*
X104121651Y-116608000D01*
X104081651Y-123365000D02*
X104081651Y-116635000D01*
X104041651Y-123338000D02*
X104041651Y-116662000D01*
X104001651Y-123309000D02*
X104001651Y-116691000D01*
X103961651Y-123280000D02*
X103961651Y-116720000D01*
X103921651Y-123250000D02*
X103921651Y-116750000D01*
X103881651Y-123220000D02*
X103881651Y-116780000D01*
X103841651Y-123189000D02*
X103841651Y-116811000D01*
X103801651Y-123156000D02*
X103801651Y-116844000D01*
X103761651Y-123124000D02*
X103761651Y-116876000D01*
X103721651Y-123090000D02*
X103721651Y-116910000D01*
X103681651Y-123055000D02*
X103681651Y-116945000D01*
X103641651Y-123019000D02*
X103641651Y-116981000D01*
X103601651Y-122983000D02*
X103601651Y-117017000D01*
X103561651Y-122945000D02*
X103561651Y-117055000D01*
X103521651Y-122907000D02*
X103521651Y-117093000D01*
X103481651Y-122867000D02*
X103481651Y-117133000D01*
X103441651Y-122826000D02*
X103441651Y-117174000D01*
X103401651Y-122784000D02*
X103401651Y-117216000D01*
X103361651Y-122741000D02*
X103361651Y-117259000D01*
X103321651Y-122697000D02*
X103321651Y-117303000D01*
X103281651Y-122651000D02*
X103281651Y-117349000D01*
X103241651Y-122604000D02*
X103241651Y-117396000D01*
X103201651Y-122556000D02*
X103201651Y-117444000D01*
X103161651Y-122505000D02*
X103161651Y-117495000D01*
X103121651Y-122454000D02*
X103121651Y-117546000D01*
X103081651Y-122400000D02*
X103081651Y-117600000D01*
X103041651Y-122345000D02*
X103041651Y-117655000D01*
X103001651Y-122287000D02*
X103001651Y-117713000D01*
X102961651Y-122228000D02*
X102961651Y-117772000D01*
X102921651Y-122166000D02*
X102921651Y-117834000D01*
X102881651Y-122102000D02*
X102881651Y-117898000D01*
X102841651Y-122034000D02*
X102841651Y-117966000D01*
X102801651Y-121964000D02*
X102801651Y-118036000D01*
X102761651Y-121890000D02*
X102761651Y-118110000D01*
X102721651Y-121813000D02*
X102721651Y-118187000D01*
X102681651Y-121731000D02*
X102681651Y-118269000D01*
X102641651Y-121645000D02*
X102641651Y-118355000D01*
X102601651Y-121552000D02*
X102601651Y-118448000D01*
X102561651Y-121453000D02*
X102561651Y-118547000D01*
X102521651Y-121346000D02*
X102521651Y-118654000D01*
X102481651Y-121229000D02*
X102481651Y-118771000D01*
X102441651Y-121098000D02*
X102441651Y-118902000D01*
X102401651Y-120948000D02*
X102401651Y-119052000D01*
X102361651Y-120768000D02*
X102361651Y-119232000D01*
X102321651Y-120533000D02*
X102321651Y-119467000D01*
X110522651Y-120000000D02*
G75*
G03*
X110522651Y-120000000I-4120000J0D01*
G01*
%TO.C,R15*%
X123910000Y-122272936D02*
X123910000Y-123727064D01*
X122090000Y-122272936D02*
X122090000Y-123727064D01*
%TO.C,R1*%
X108772936Y-109590000D02*
X110227064Y-109590000D01*
X108772936Y-111410000D02*
X110227064Y-111410000D01*
%TO.C,J4*%
X121330000Y-122670000D02*
X121330000Y-124000000D01*
X120000000Y-122670000D02*
X121330000Y-122670000D01*
X118730000Y-122670000D02*
X118670000Y-122670000D01*
X118730000Y-122670000D02*
X118730000Y-125270000D01*
X118670000Y-122670000D02*
X118670000Y-127870000D01*
X121330000Y-125270000D02*
X121330000Y-127870000D01*
X118730000Y-125270000D02*
X121330000Y-125270000D01*
X121330000Y-127870000D02*
X118670000Y-127870000D01*
%TO.C,R16*%
X123910000Y-127272936D02*
X123910000Y-128727064D01*
X122090000Y-127272936D02*
X122090000Y-128727064D01*
%TO.C,U1*%
X117500000Y-104065000D02*
X114050000Y-104065000D01*
X117500000Y-104065000D02*
X119450000Y-104065000D01*
X117500000Y-112935000D02*
X115550000Y-112935000D01*
X117500000Y-112935000D02*
X119450000Y-112935000D01*
%TD*%
D13*
X100000000Y-60000000D02*
X140000000Y-60000000D01*
X140000000Y-140000000D01*
X100000000Y-140000000D01*
X100000000Y-60000000D01*
M02*
