%TF.GenerationSoftware,KiCad,Pcbnew,7.0.7*%
%TF.CreationDate,2024-05-16T13:05:52-10:00*%
%TF.ProjectId,pHSim2,70485369-6d32-42e6-9b69-6361645f7063,rev?*%
%TF.SameCoordinates,Original*%
%TF.FileFunction,Copper,L1,Top*%
%TF.FilePolarity,Positive*%
%FSLAX46Y46*%
G04 Gerber Fmt 4.6, Leading zero omitted, Abs format (unit mm)*
G04 Created by KiCad (PCBNEW 7.0.7) date 2024-05-16 13:05:52*
%MOMM*%
%LPD*%
G01*
G04 APERTURE LIST*
G04 Aperture macros list*
%AMRoundRect*
0 Rectangle with rounded corners*
0 $1 Rounding radius*
0 $2 $3 $4 $5 $6 $7 $8 $9 X,Y pos of 4 corners*
0 Add a 4 corners polygon primitive as box body*
4,1,4,$2,$3,$4,$5,$6,$7,$8,$9,$2,$3,0*
0 Add four circle primitives for the rounded corners*
1,1,$1+$1,$2,$3*
1,1,$1+$1,$4,$5*
1,1,$1+$1,$6,$7*
1,1,$1+$1,$8,$9*
0 Add four rect primitives between the rounded corners*
20,1,$1+$1,$2,$3,$4,$5,0*
20,1,$1+$1,$4,$5,$6,$7,0*
20,1,$1+$1,$6,$7,$8,$9,0*
20,1,$1+$1,$8,$9,$2,$3,0*%
G04 Aperture macros list end*
%TA.AperFunction,ComponentPad*%
%ADD10C,1.440000*%
%TD*%
%TA.AperFunction,ComponentPad*%
%ADD11R,1.700000X1.700000*%
%TD*%
%TA.AperFunction,ComponentPad*%
%ADD12O,1.700000X1.700000*%
%TD*%
%TA.AperFunction,SMDPad,CuDef*%
%ADD13RoundRect,0.250000X-0.625000X0.400000X-0.625000X-0.400000X0.625000X-0.400000X0.625000X0.400000X0*%
%TD*%
%TA.AperFunction,ComponentPad*%
%ADD14R,1.800000X1.800000*%
%TD*%
%TA.AperFunction,ComponentPad*%
%ADD15C,1.800000*%
%TD*%
%TA.AperFunction,SMDPad,CuDef*%
%ADD16RoundRect,0.150000X-0.825000X-0.150000X0.825000X-0.150000X0.825000X0.150000X-0.825000X0.150000X0*%
%TD*%
%TA.AperFunction,ComponentPad*%
%ADD17RoundRect,0.450000X-0.450000X-0.450000X0.450000X-0.450000X0.450000X0.450000X-0.450000X0.450000X0*%
%TD*%
%TA.AperFunction,ComponentPad*%
%ADD18C,3.000000*%
%TD*%
%TA.AperFunction,SMDPad,CuDef*%
%ADD19RoundRect,0.250000X-0.400000X-0.625000X0.400000X-0.625000X0.400000X0.625000X-0.400000X0.625000X0*%
%TD*%
%TA.AperFunction,SMDPad,CuDef*%
%ADD20RoundRect,0.250000X0.412500X0.650000X-0.412500X0.650000X-0.412500X-0.650000X0.412500X-0.650000X0*%
%TD*%
%TA.AperFunction,SMDPad,CuDef*%
%ADD21RoundRect,0.250000X0.650000X-0.412500X0.650000X0.412500X-0.650000X0.412500X-0.650000X-0.412500X0*%
%TD*%
%TA.AperFunction,SMDPad,CuDef*%
%ADD22RoundRect,0.250000X0.400000X0.625000X-0.400000X0.625000X-0.400000X-0.625000X0.400000X-0.625000X0*%
%TD*%
%TA.AperFunction,ComponentPad*%
%ADD23C,2.600000*%
%TD*%
%TA.AperFunction,SMDPad,CuDef*%
%ADD24RoundRect,0.250000X1.000000X0.650000X-1.000000X0.650000X-1.000000X-0.650000X1.000000X-0.650000X0*%
%TD*%
%TA.AperFunction,SMDPad,CuDef*%
%ADD25RoundRect,0.250000X0.625000X-0.400000X0.625000X0.400000X-0.625000X0.400000X-0.625000X-0.400000X0*%
%TD*%
%TA.AperFunction,SMDPad,CuDef*%
%ADD26RoundRect,0.250000X-0.412500X-0.650000X0.412500X-0.650000X0.412500X0.650000X-0.412500X0.650000X0*%
%TD*%
%TA.AperFunction,ComponentPad*%
%ADD27O,2.500000X1.600000*%
%TD*%
%TA.AperFunction,ComponentPad*%
%ADD28O,7.000000X3.500000*%
%TD*%
%TA.AperFunction,ComponentPad*%
%ADD29R,1.600000X1.600000*%
%TD*%
%TA.AperFunction,ComponentPad*%
%ADD30C,1.600000*%
%TD*%
%TA.AperFunction,ViaPad*%
%ADD31C,1.500000*%
%TD*%
%TA.AperFunction,Conductor*%
%ADD32C,0.500000*%
%TD*%
%TA.AperFunction,Conductor*%
%ADD33C,1.000000*%
%TD*%
G04 APERTURE END LIST*
D10*
%TO.P,R9,2,2*%
%TO.N,Net-(U1C-+)*%
X122050000Y-89250000D03*
%TO.P,R9,3,3*%
%TO.N,Net-(R7-Pad2)*%
X119470000Y-89250000D03*
%TO.P,R9,2,2*%
%TO.N,Net-(U1C-+)*%
X122010000Y-91790000D03*
%TO.P,R9,1,1*%
%TO.N,Net-(R11-Pad1)*%
X124550000Y-89250000D03*
%TD*%
%TO.P,R8,2,2*%
%TO.N,Net-(U1A-+)*%
X110550000Y-89375000D03*
%TO.P,R8,3,3*%
%TO.N,Net-(R6-Pad2)*%
X107970000Y-89375000D03*
%TO.P,R8,2,2*%
%TO.N,Net-(U1A-+)*%
X110510000Y-91915000D03*
%TO.P,R8,1,1*%
%TO.N,Net-(R10-Pad1)*%
X113050000Y-89375000D03*
%TD*%
D11*
%TO.P,J4,1,Pin_1*%
%TO.N,Net-(J4-Pin_1)*%
X120000000Y-124000000D03*
D12*
%TO.P,J4,2,Pin_2*%
%TO.N,Net-(J3-In)*%
X120000000Y-126540000D03*
%TD*%
D13*
%TO.P,R16,1*%
%TO.N,Net-(R15-Pad2)*%
X123000000Y-126450000D03*
%TO.P,R16,2*%
%TO.N,Net-(J3-In)*%
X123000000Y-129550000D03*
%TD*%
D14*
%TO.P,D1,1,K*%
%TO.N,/Pwr-*%
X134750000Y-116275000D03*
D15*
%TO.P,D1,2,A*%
%TO.N,Net-(D1-A)*%
X134750000Y-113735000D03*
%TD*%
D16*
%TO.P,U3,1,K*%
%TO.N,GND*%
X116525000Y-68095000D03*
%TO.P,U3,2,A*%
%TO.N,/Ref-2.5*%
X116525000Y-69365000D03*
%TO.P,U3,3,A*%
X116525000Y-70635000D03*
%TO.P,U3,4*%
%TO.N,N/C*%
X116525000Y-71905000D03*
%TO.P,U3,5*%
X121475000Y-71905000D03*
%TO.P,U3,6,A*%
%TO.N,/Ref-2.5*%
X121475000Y-70635000D03*
%TO.P,U3,7,A*%
X121475000Y-69365000D03*
%TO.P,U3,8,REF*%
%TO.N,GND*%
X121475000Y-68095000D03*
%TD*%
D13*
%TO.P,R5,1*%
%TO.N,/PwrSw*%
X131500000Y-110950000D03*
%TO.P,R5,2*%
%TO.N,Net-(D1-A)*%
X131500000Y-114050000D03*
%TD*%
D17*
%TO.P,R14,1,1*%
%TO.N,Net-(R12-Pad2)*%
X135000000Y-74500000D03*
D15*
%TO.P,R14,2,2*%
%TO.N,Net-(U1D-+)*%
X135000000Y-72000000D03*
%TO.P,R14,3,3*%
%TO.N,Net-(R13-Pad1)*%
X135000000Y-69500000D03*
%TD*%
D18*
%TO.P,TP2,1,1*%
%TO.N,/Ref+2.5*%
X110000000Y-76500000D03*
%TD*%
D19*
%TO.P,R12,1*%
%TO.N,/Ref+2.5*%
X127450000Y-74500000D03*
%TO.P,R12,2*%
%TO.N,Net-(R12-Pad2)*%
X130550000Y-74500000D03*
%TD*%
D13*
%TO.P,R6,1*%
%TO.N,/Ref+2.5*%
X107460000Y-82450000D03*
%TO.P,R6,2*%
%TO.N,Net-(R6-Pad2)*%
X107460000Y-85550000D03*
%TD*%
D20*
%TO.P,C5,1*%
%TO.N,Net-(U1D-+)*%
X130562500Y-72000000D03*
%TO.P,C5,2*%
%TO.N,GND*%
X127437500Y-72000000D03*
%TD*%
D21*
%TO.P,C3,1*%
%TO.N,Net-(U1A-+)*%
X110460000Y-85562500D03*
%TO.P,C3,2*%
%TO.N,GND*%
X110460000Y-82437500D03*
%TD*%
D22*
%TO.P,R4,1*%
%TO.N,/Ref-2.5*%
X121550000Y-65500000D03*
%TO.P,R4,2*%
%TO.N,/Pwr-*%
X118450000Y-65500000D03*
%TD*%
D23*
%TO.P,J2,1,Pin_1*%
%TO.N,/Pwr-*%
X106000000Y-135000000D03*
%TD*%
D24*
%TO.P,D2,1,K*%
%TO.N,/Pwr+*%
X121000000Y-135000000D03*
%TO.P,D2,2,A*%
%TO.N,Net-(D2-A)*%
X117000000Y-135000000D03*
%TD*%
D13*
%TO.P,R7,1*%
%TO.N,/Ref-2.5*%
X118960000Y-82450000D03*
%TO.P,R7,2*%
%TO.N,Net-(R7-Pad2)*%
X118960000Y-85550000D03*
%TD*%
D23*
%TO.P,J1,1,Pin_1*%
%TO.N,Net-(D2-A)*%
X111000000Y-135000000D03*
%TD*%
D25*
%TO.P,R10,1*%
%TO.N,Net-(R10-Pad1)*%
X113460000Y-85550000D03*
%TO.P,R10,2*%
%TO.N,GND*%
X113460000Y-82450000D03*
%TD*%
D21*
%TO.P,C4,1*%
%TO.N,Net-(U1C-+)*%
X121960000Y-85562500D03*
%TO.P,C4,2*%
%TO.N,GND*%
X121960000Y-82437500D03*
%TD*%
D25*
%TO.P,R11,1*%
%TO.N,Net-(R11-Pad1)*%
X124960000Y-85550000D03*
%TO.P,R11,2*%
%TO.N,GND*%
X124960000Y-82450000D03*
%TD*%
D22*
%TO.P,R13,1*%
%TO.N,Net-(R13-Pad1)*%
X130550000Y-69500000D03*
%TO.P,R13,2*%
%TO.N,/Ref-2.5*%
X127450000Y-69500000D03*
%TD*%
D18*
%TO.P,TP1,1,1*%
%TO.N,Net-(J4-Pin_1)*%
X115000000Y-120000000D03*
%TD*%
D19*
%TO.P,R3,1*%
%TO.N,/PwrSw*%
X107450000Y-65500000D03*
%TO.P,R3,2*%
%TO.N,/Ref+2.5*%
X110550000Y-65500000D03*
%TD*%
D18*
%TO.P,TP3,1,1*%
%TO.N,/Ref-2.5*%
X119000000Y-76500000D03*
%TD*%
D16*
%TO.P,U2,1,K*%
%TO.N,/Ref+2.5*%
X107525000Y-68095000D03*
%TO.P,U2,2,A*%
%TO.N,GND*%
X107525000Y-69365000D03*
%TO.P,U2,3,A*%
X107525000Y-70635000D03*
%TO.P,U2,4*%
%TO.N,N/C*%
X107525000Y-71905000D03*
%TO.P,U2,5*%
X112475000Y-71905000D03*
%TO.P,U2,6,A*%
%TO.N,GND*%
X112475000Y-70635000D03*
%TO.P,U2,7,A*%
X112475000Y-69365000D03*
%TO.P,U2,8,REF*%
%TO.N,/Ref+2.5*%
X112475000Y-68095000D03*
%TD*%
D22*
%TO.P,R2,1*%
%TO.N,Net-(U1B-+)*%
X111050000Y-113000000D03*
%TO.P,R2,2*%
%TO.N,/Pwr-*%
X107950000Y-113000000D03*
%TD*%
D26*
%TO.P,C2,1*%
%TO.N,/PwrSw*%
X115937500Y-114500000D03*
%TO.P,C2,2*%
%TO.N,/Pwr-*%
X119062500Y-114500000D03*
%TD*%
D27*
%TO.P,J3,1,In*%
%TO.N,Net-(J3-In)*%
X127450000Y-128000000D03*
D28*
%TO.P,J3,2,Ext*%
%TO.N,GND*%
X132530000Y-122920000D03*
D27*
X127450000Y-125460000D03*
D28*
X132530000Y-133080000D03*
%TD*%
D15*
%TO.P,SW2,1,1*%
%TO.N,/Pwr+*%
X135000000Y-95000000D03*
%TO.P,SW2,2,2*%
%TO.N,unconnected-(SW2-Pad2)*%
X135000000Y-97500000D03*
%TO.P,SW2,3,3*%
%TO.N,/PwrSw*%
X135000000Y-100000000D03*
%TO.P,SW2,4,4*%
X135000000Y-102500000D03*
%TO.P,SW2,5,5*%
X135000000Y-105000000D03*
%TO.P,SW2,6,6*%
%TO.N,Net-(J4-Pin_1)*%
X130000000Y-95000000D03*
%TO.P,SW2,7,7*%
%TO.N,GND*%
X130000000Y-97500000D03*
%TO.P,SW2,8,8*%
%TO.N,/Ref10*%
X130000000Y-100000000D03*
%TO.P,SW2,9,9*%
%TO.N,/Ref4*%
X130000000Y-102500000D03*
%TO.P,SW2,10,10*%
%TO.N,/RefV*%
X130000000Y-105000000D03*
%TD*%
D18*
%TO.P,TP0,1,1*%
%TO.N,GND*%
X115000000Y-127500000D03*
%TD*%
D29*
%TO.P,C1,1*%
%TO.N,/PwrSw*%
X107652651Y-120000000D03*
D30*
%TO.P,C1,2*%
%TO.N,/Pwr-*%
X105152651Y-120000000D03*
%TD*%
D13*
%TO.P,R15,1*%
%TO.N,Net-(J4-Pin_1)*%
X123000000Y-121450000D03*
%TO.P,R15,2*%
%TO.N,Net-(R15-Pad2)*%
X123000000Y-124550000D03*
%TD*%
D19*
%TO.P,R1,1*%
%TO.N,/PwrSw*%
X107950000Y-110500000D03*
%TO.P,R1,2*%
%TO.N,Net-(U1B-+)*%
X111050000Y-110500000D03*
%TD*%
D16*
%TO.P,U1,1*%
%TO.N,/Ref10*%
X115025000Y-104690000D03*
%TO.P,U1,2,-*%
X115025000Y-105960000D03*
%TO.P,U1,3,+*%
%TO.N,Net-(U1A-+)*%
X115025000Y-107230000D03*
%TO.P,U1,4,V+*%
%TO.N,/PwrSw*%
X115025000Y-108500000D03*
%TO.P,U1,5,+*%
%TO.N,Net-(U1B-+)*%
X115025000Y-109770000D03*
%TO.P,U1,6,-*%
%TO.N,GND*%
X115025000Y-111040000D03*
%TO.P,U1,7*%
X115025000Y-112310000D03*
%TO.P,U1,8*%
%TO.N,/Ref4*%
X119975000Y-112310000D03*
%TO.P,U1,9,-*%
X119975000Y-111040000D03*
%TO.P,U1,10,+*%
%TO.N,Net-(U1C-+)*%
X119975000Y-109770000D03*
%TO.P,U1,11,V-*%
%TO.N,/Pwr-*%
X119975000Y-108500000D03*
%TO.P,U1,12,+*%
%TO.N,Net-(U1D-+)*%
X119975000Y-107230000D03*
%TO.P,U1,13,-*%
%TO.N,/RefV*%
X119975000Y-105960000D03*
%TO.P,U1,14*%
X119975000Y-104690000D03*
%TD*%
D31*
%TO.N,GND*%
X119000000Y-68095000D03*
X113190000Y-112310000D03*
X127500000Y-82500000D03*
X110000000Y-69365000D03*
X125000000Y-73000000D03*
X116000000Y-82500000D03*
%TO.N,/PwrSw*%
X105000000Y-66500000D03*
X107500000Y-108500000D03*
%TO.N,/Pwr-*%
X125000000Y-116500000D03*
X121500000Y-116500000D03*
%TO.N,/Ref+2.5*%
X121500000Y-74000000D03*
X116000000Y-74000000D03*
%TO.N,/Ref10*%
X119000000Y-103000000D03*
%TO.N,Net-(U1C-+)*%
X122000000Y-110000000D03*
X121000000Y-103000000D03*
%TO.N,Net-(U1D-+)*%
X129000000Y-76500000D03*
X123000000Y-103000000D03*
X123000000Y-106000000D03*
%TD*%
D32*
%TO.N,/Ref10*%
X116310000Y-104690000D02*
X115025000Y-104690000D01*
X119000000Y-103000000D02*
X118000000Y-103000000D01*
X118000000Y-103000000D02*
X116310000Y-104690000D01*
%TO.N,Net-(U1C-+)*%
X121000000Y-101500000D02*
X121000000Y-103000000D01*
X122010000Y-100490000D02*
X121000000Y-101500000D01*
X122010000Y-91790000D02*
X122010000Y-100490000D01*
%TO.N,Net-(R11-Pad1)*%
X124550000Y-85960000D02*
X124960000Y-85550000D01*
X124550000Y-89250000D02*
X124550000Y-85960000D01*
%TO.N,Net-(U1C-+)*%
X122010000Y-85612500D02*
X121960000Y-85562500D01*
X122010000Y-91790000D02*
X122010000Y-85612500D01*
%TO.N,Net-(R7-Pad2)*%
X119470000Y-86060000D02*
X118960000Y-85550000D01*
X119470000Y-89250000D02*
X119470000Y-86060000D01*
%TO.N,Net-(U1A-+)*%
X110510000Y-96490000D02*
X110510000Y-91915000D01*
X110500000Y-96500000D02*
X110510000Y-96490000D01*
%TO.N,Net-(R10-Pad1)*%
X113050000Y-85960000D02*
X113460000Y-85550000D01*
X113050000Y-89375000D02*
X113050000Y-85960000D01*
%TO.N,Net-(U1A-+)*%
X110510000Y-85612500D02*
X110460000Y-85562500D01*
X110510000Y-91915000D02*
X110510000Y-85612500D01*
%TO.N,Net-(R6-Pad2)*%
X107970000Y-86060000D02*
X107460000Y-85550000D01*
X107970000Y-89375000D02*
X107970000Y-86060000D01*
%TO.N,/Ref+2.5*%
X107460000Y-78960000D02*
X107460000Y-82450000D01*
D33*
%TO.N,/Pwr-*%
X105152651Y-122152651D02*
X105152651Y-120000000D01*
X106000000Y-123000000D02*
X105152651Y-122152651D01*
X103000000Y-116500000D02*
X103000000Y-113000000D01*
D32*
X119062500Y-116500000D02*
X103000000Y-116500000D01*
D33*
X103000000Y-117847349D02*
X103000000Y-116500000D01*
D32*
X119062500Y-116500000D02*
X121500000Y-116500000D01*
%TO.N,/PwrSw*%
X107500000Y-108500000D02*
X115025000Y-108500000D01*
X107950000Y-108950000D02*
X107950000Y-110500000D01*
X107500000Y-108500000D02*
X107950000Y-108950000D01*
D33*
%TO.N,/Pwr-*%
X105152651Y-120000000D02*
X103000000Y-117847349D01*
X106000000Y-135000000D02*
X106000000Y-123000000D01*
D32*
%TO.N,Net-(J3-In)*%
X126000000Y-128000000D02*
X127450000Y-128000000D01*
X124450000Y-129550000D02*
X126000000Y-128000000D01*
X123000000Y-129550000D02*
X124450000Y-129550000D01*
%TO.N,Net-(R15-Pad2)*%
X123000000Y-126450000D02*
X123000000Y-124550000D01*
%TO.N,Net-(J3-In)*%
X120000000Y-128500000D02*
X121050000Y-129550000D01*
X120000000Y-126540000D02*
X120000000Y-128500000D01*
X121050000Y-129550000D02*
X123000000Y-129550000D01*
%TO.N,Net-(J4-Pin_1)*%
X120000000Y-124000000D02*
X120000000Y-120000000D01*
X120000000Y-120000000D02*
X123000000Y-120000000D01*
X115000000Y-120000000D02*
X120000000Y-120000000D01*
X131500000Y-95000000D02*
X130000000Y-95000000D01*
X123000000Y-116500000D02*
X133000000Y-106500000D01*
X133000000Y-106500000D02*
X133000000Y-96500000D01*
X133000000Y-96500000D02*
X131500000Y-95000000D01*
X123000000Y-121450000D02*
X123000000Y-116500000D01*
%TO.N,GND*%
X115025000Y-112310000D02*
X113190000Y-112310000D01*
X113460000Y-82450000D02*
X113510000Y-82500000D01*
X126000000Y-72000000D02*
X125000000Y-73000000D01*
X127500000Y-82500000D02*
X127450000Y-82450000D01*
X112475000Y-70635000D02*
X112475000Y-69365000D01*
X121960000Y-82437500D02*
X124947500Y-82437500D01*
X113510000Y-82500000D02*
X116000000Y-82500000D01*
X107525000Y-70635000D02*
X107525000Y-69365000D01*
X127437500Y-72000000D02*
X126000000Y-72000000D01*
X112475000Y-69365000D02*
X107525000Y-69365000D01*
X110460000Y-82437500D02*
X113447500Y-82437500D01*
X121475000Y-68095000D02*
X116525000Y-68095000D01*
X115025000Y-112310000D02*
X115025000Y-111040000D01*
X124947500Y-82437500D02*
X124960000Y-82450000D01*
X127450000Y-82450000D02*
X124960000Y-82450000D01*
X113000000Y-112500000D02*
X113190000Y-112310000D01*
X113447500Y-82437500D02*
X113460000Y-82450000D01*
%TO.N,/PwrSw*%
X106000000Y-65500000D02*
X105000000Y-66500000D01*
X117000000Y-109000000D02*
X116500000Y-108500000D01*
X116500000Y-108500000D02*
X115025000Y-108500000D01*
X131500000Y-110950000D02*
X133550000Y-110950000D01*
X117000000Y-113000000D02*
X117000000Y-109000000D01*
X115937500Y-114062500D02*
X117000000Y-113000000D01*
X107450000Y-65500000D02*
X106000000Y-65500000D01*
X115937500Y-114500000D02*
X115937500Y-114062500D01*
X133550000Y-110950000D02*
X135000000Y-109500000D01*
X135000000Y-109500000D02*
X135000000Y-105000000D01*
%TO.N,Net-(U1A-+)*%
X115025000Y-107230000D02*
X113230000Y-107230000D01*
X113230000Y-107230000D02*
X112500000Y-106500000D01*
X112500000Y-98500000D02*
X110500000Y-96500000D01*
X112500000Y-106500000D02*
X112500000Y-98500000D01*
%TO.N,/Pwr-*%
X118450000Y-63950000D02*
X118450000Y-65500000D01*
X125000000Y-116500000D02*
X134525000Y-116500000D01*
X118000000Y-109000000D02*
X118500000Y-108500000D01*
D33*
X103000000Y-93000000D02*
X108000000Y-98000000D01*
X103000000Y-65500000D02*
X103000000Y-93000000D01*
D32*
X119062500Y-114062500D02*
X118000000Y-113000000D01*
X117500000Y-63000000D02*
X118450000Y-63950000D01*
X119062500Y-114500000D02*
X119062500Y-116500000D01*
X107950000Y-113000000D02*
X103000000Y-113000000D01*
D33*
X105500000Y-63000000D02*
X103000000Y-65500000D01*
X108000000Y-102000000D02*
X103000000Y-107000000D01*
X117500000Y-63000000D02*
X105500000Y-63000000D01*
X108000000Y-98000000D02*
X108000000Y-102000000D01*
D32*
X118000000Y-113000000D02*
X118000000Y-109000000D01*
X118500000Y-108500000D02*
X119975000Y-108500000D01*
X134525000Y-116500000D02*
X134750000Y-116275000D01*
X119062500Y-114500000D02*
X119062500Y-114062500D01*
D33*
X103000000Y-107000000D02*
X103000000Y-113000000D01*
D32*
%TO.N,/Ref+2.5*%
X110550000Y-65500000D02*
X110550000Y-68045000D01*
X106500000Y-76500000D02*
X110000000Y-76500000D01*
X113500000Y-76500000D02*
X116000000Y-74000000D01*
X106500000Y-78000000D02*
X106500000Y-76500000D01*
X107525000Y-68095000D02*
X105905000Y-68095000D01*
X105500000Y-68500000D02*
X105500000Y-75500000D01*
X105905000Y-68095000D02*
X105500000Y-68500000D01*
X105500000Y-75500000D02*
X106500000Y-76500000D01*
X107525000Y-68095000D02*
X110500000Y-68095000D01*
X110000000Y-76500000D02*
X113500000Y-76500000D01*
X127450000Y-74500000D02*
X123500000Y-74500000D01*
X123000000Y-74000000D02*
X121500000Y-74000000D01*
X110500000Y-68095000D02*
X112475000Y-68095000D01*
X107460000Y-78960000D02*
X106500000Y-78000000D01*
X123500000Y-74500000D02*
X123000000Y-74000000D01*
X110550000Y-68045000D02*
X110500000Y-68095000D01*
%TO.N,/Ref-2.5*%
X116525000Y-70635000D02*
X119000000Y-70635000D01*
X119000000Y-70635000D02*
X121475000Y-70635000D01*
X121550000Y-65500000D02*
X123000000Y-65500000D01*
X116525000Y-69365000D02*
X116525000Y-70635000D01*
X123500000Y-68500000D02*
X124500000Y-69500000D01*
X123500000Y-68500000D02*
X122635000Y-69365000D01*
X123000000Y-65500000D02*
X123500000Y-66000000D01*
X123500000Y-66000000D02*
X123500000Y-68500000D01*
X119000000Y-82410000D02*
X118960000Y-82450000D01*
X124500000Y-69500000D02*
X127450000Y-69500000D01*
X121475000Y-69365000D02*
X121475000Y-70635000D01*
X122635000Y-69365000D02*
X121475000Y-69365000D01*
X119000000Y-76500000D02*
X119000000Y-82410000D01*
X119000000Y-70635000D02*
X119000000Y-76500000D01*
%TO.N,Net-(R11-Pad1)*%
X124540000Y-85970000D02*
X124960000Y-85550000D01*
%TO.N,Net-(D1-A)*%
X134750000Y-113735000D02*
X131815000Y-113735000D01*
X131815000Y-113735000D02*
X131500000Y-114050000D01*
%TO.N,Net-(U1B-+)*%
X111050000Y-113000000D02*
X111050000Y-110500000D01*
X113230000Y-109770000D02*
X112500000Y-110500000D01*
X115025000Y-109770000D02*
X113230000Y-109770000D01*
X112500000Y-110500000D02*
X111050000Y-110500000D01*
%TO.N,/Ref10*%
X115025000Y-105960000D02*
X115025000Y-104690000D01*
%TO.N,/Ref4*%
X125690000Y-112310000D02*
X132000000Y-106000000D01*
X132000000Y-106000000D02*
X132000000Y-103000000D01*
X132000000Y-103000000D02*
X131500000Y-102500000D01*
X131500000Y-102500000D02*
X130000000Y-102500000D01*
X119975000Y-112310000D02*
X125690000Y-112310000D01*
X119975000Y-111040000D02*
X119975000Y-112310000D01*
%TO.N,/RefV*%
X119975000Y-105960000D02*
X119975000Y-104690000D01*
X126500000Y-105000000D02*
X130000000Y-105000000D01*
X119975000Y-104690000D02*
X126190000Y-104690000D01*
X126190000Y-104690000D02*
X126500000Y-105000000D01*
D33*
%TO.N,/Pwr+*%
X121000000Y-135000000D02*
X126000000Y-135000000D01*
X128000000Y-137000000D02*
X136000000Y-137000000D01*
X138000000Y-96000000D02*
X137000000Y-95000000D01*
X136000000Y-137000000D02*
X138000000Y-135000000D01*
X137000000Y-95000000D02*
X135000000Y-95000000D01*
X126000000Y-135000000D02*
X128000000Y-137000000D01*
X138000000Y-135000000D02*
X138000000Y-96000000D01*
D32*
%TO.N,Net-(U1C-+)*%
X119975000Y-109770000D02*
X121770000Y-109770000D01*
X121770000Y-109770000D02*
X122000000Y-110000000D01*
%TO.N,Net-(U1D-+)*%
X121770000Y-107230000D02*
X123000000Y-106000000D01*
X130562500Y-72000000D02*
X135000000Y-72000000D01*
X129000000Y-76500000D02*
X129000000Y-90000000D01*
X129000000Y-90000000D02*
X123000000Y-96000000D01*
X119975000Y-107230000D02*
X121770000Y-107230000D01*
X123000000Y-96000000D02*
X123000000Y-103000000D01*
%TO.N,Net-(R10-Pad1)*%
X113040000Y-85970000D02*
X113460000Y-85550000D01*
%TO.N,Net-(R12-Pad2)*%
X130550000Y-74500000D02*
X135000000Y-74500000D01*
%TO.N,Net-(R13-Pad1)*%
X130550000Y-69500000D02*
X135000000Y-69500000D01*
D33*
%TO.N,Net-(D2-A)*%
X111000000Y-135000000D02*
X117000000Y-135000000D01*
%TD*%
M02*
